<svg aria-hidden="true" style="position: absolute; width: 0; height: 0; overflow: hidden;" version="1.1" xmlns="http://www.w3.org/2000/svg" xmlns:xlink="http://www.w3.org/1999/xlink">
<defs>
<symbol id="amazonaws" viewBox="0 0 32 32">
<path d="M9.017 13.381c0 0.395 0.043 0.713 0.117 0.947 0.085 0.235 0.192 0.491 0.341 0.768 0.053 0.084 0.075 0.169 0.075 0.244 0 0.107-0.064 0.213-0.203 0.32l-0.671 0.447c-0.077 0.056-0.173 0.091-0.276 0.096l-0.001 0c-0.107 0-0.213-0.053-0.319-0.149-0.138-0.148-0.264-0.312-0.375-0.486l-0.008-0.014c-0.098-0.162-0.208-0.368-0.309-0.579l-0.021-0.049c-0.829 0.979-1.873 1.468-3.129 1.468-0.893 0-1.607-0.255-2.128-0.765-0.521-0.512-0.787-1.192-0.787-2.044 0-0.904 0.319-1.64 0.968-2.192 0.649-0.553 1.511-0.831 2.607-0.831 0.363 0 0.735 0.032 1.128 0.085 0.395 0.053 0.8 0.139 1.224 0.235v-0.777c0-0.809-0.169-1.373-0.5-1.703-0.34-0.331-0.915-0.489-1.733-0.489-0.373 0-0.757 0.041-1.151 0.137s-0.777 0.213-1.149 0.363c-0.101 0.047-0.224 0.094-0.352 0.133l-0.022 0.006c-0.050 0.017-0.108 0.028-0.168 0.031l-0.002 0c-0.149 0-0.224-0.107-0.224-0.329v-0.521c0-0.171 0.021-0.299 0.075-0.373 0.080-0.095 0.18-0.171 0.294-0.221l0.005-0.002c0.372-0.192 0.819-0.352 1.34-0.48 0.48-0.128 1.032-0.202 1.601-0.202 0.021 0 0.043 0 0.064 0l-0.003-0c1.267 0 2.192 0.288 2.788 0.863 0.585 0.573 0.883 1.447 0.883 2.617zM4.697 15c0.351 0 0.712-0.064 1.096-0.192 0.383-0.128 0.724-0.361 1.011-0.68 0.171-0.203 0.299-0.427 0.363-0.683 0.063-0.255 0.107-0.564 0.107-0.925v-0.447c-0.264-0.069-0.597-0.132-0.935-0.177l-0.045-0.005c-0.3-0.040-0.647-0.063-0.999-0.064h-0.001c-0.713 0-1.235 0.139-1.587 0.427-0.351 0.287-0.52 0.691-0.52 1.223 0 0.5 0.127 0.873 0.393 1.128 0.255 0.267 0.627 0.395 1.117 0.395zM13.244 16.149c-0.192 0-0.32-0.032-0.405-0.107-0.085-0.064-0.16-0.213-0.224-0.415l-2.5-8.228c-0.045-0.124-0.079-0.269-0.095-0.418l-0.001-0.008c0-0.171 0.085-0.267 0.255-0.267h1.044c0.201 0 0.34 0.033 0.413 0.107 0.087 0.064 0.151 0.213 0.213 0.416l1.789 7.045 1.66-7.045c0.053-0.213 0.117-0.352 0.201-0.416 0.109-0.068 0.241-0.108 0.383-0.108 0.015 0 0.031 0 0.046 0.001l-0.002-0h0.851c0.203 0 0.341 0.033 0.427 0.107 0.084 0.064 0.16 0.213 0.201 0.416l1.681 7.131 1.841-7.131c0.064-0.213 0.139-0.352 0.213-0.416 0.105-0.068 0.234-0.108 0.372-0.108 0.015 0 0.030 0 0.045 0.001l-0.002-0h0.991c0.169 0 0.267 0.087 0.267 0.267 0 0.053-0.012 0.107-0.023 0.171-0.019 0.102-0.045 0.191-0.078 0.277l0.004-0.010-2.564 8.227c-0.064 0.213-0.139 0.351-0.224 0.415-0.104 0.067-0.231 0.108-0.367 0.108-0.013 0-0.026-0-0.039-0.001l0.002 0h-0.916c-0.201 0-0.34-0.032-0.427-0.107-0.084-0.075-0.159-0.213-0.2-0.427l-1.651-6.864-1.64 6.853c-0.053 0.213-0.116 0.352-0.2 0.427-0.087 0.075-0.236 0.107-0.427 0.107zM26.919 16.436c-0.553 0-1.107-0.064-1.639-0.191-0.532-0.128-0.947-0.267-1.224-0.427-0.171-0.095-0.287-0.201-0.329-0.297-0.040-0.088-0.063-0.19-0.064-0.298v-0.543c0-0.223 0.085-0.329 0.244-0.329 0.064 0 0.128 0.011 0.192 0.032s0.16 0.064 0.267 0.107c0.361 0.16 0.755 0.287 1.171 0.372 0.425 0.085 0.84 0.128 1.267 0.128 0.669 0 1.192-0.117 1.553-0.352 0.334-0.204 0.554-0.567 0.554-0.981 0-0.010-0-0.021-0-0.031l0 0.002c0-0.009 0-0.019 0-0.030 0-0.278-0.109-0.53-0.287-0.716l0 0c-0.192-0.201-0.555-0.383-1.076-0.553l-1.543-0.48c-0.777-0.244-1.352-0.605-1.703-1.084-0.33-0.422-0.53-0.959-0.533-1.543v-0.001c0-0.447 0.097-0.84 0.288-1.181 0.192-0.34 0.447-0.639 0.767-0.872 0.32-0.245 0.68-0.427 1.107-0.553 0.427-0.128 0.873-0.181 1.341-0.181 0.233 0 0.479 0.011 0.713 0.043 0.244 0.032 0.467 0.075 0.691 0.117 0.213 0.053 0.416 0.107 0.607 0.169 0.192 0.064 0.341 0.128 0.448 0.192 0.128 0.065 0.235 0.155 0.318 0.264l0.002 0.002c0.060 0.089 0.096 0.199 0.096 0.317 0 0.012-0 0.024-0.001 0.035l0-0.002v0.5c0 0.224-0.085 0.341-0.245 0.341-0.151-0.018-0.287-0.063-0.41-0.131l0.006 0.003c-0.579-0.262-1.255-0.415-1.968-0.415-0.026 0-0.053 0-0.079 0.001l0.004-0c-0.607 0-1.087 0.095-1.416 0.297-0.331 0.203-0.5 0.511-0.5 0.947 0 0.299 0.107 0.555 0.32 0.756 0.212 0.203 0.605 0.405 1.169 0.587l1.512 0.477c0.765 0.245 1.32 0.587 1.649 1.023s0.489 0.936 0.489 1.489c0 0.457-0.096 0.873-0.276 1.235-0.192 0.363-0.448 0.681-0.777 0.937-0.331 0.267-0.724 0.457-1.181 0.596-0.48 0.148-0.979 0.223-1.523 0.223zM28.931 21.609c-3.501 2.587-8.589 3.959-12.963 3.959-6.131 0-11.653-2.267-15.827-6.035-0.329-0.297-0.032-0.703 0.363-0.468 4.512 2.617 10.079 4.204 15.836 4.204 3.885 0 8.152-0.809 12.080-2.469 0.585-0.267 1.085 0.383 0.511 0.809zM30.389 19.948c-0.448-0.573-2.96-0.276-4.099-0.137-0.34 0.043-0.393-0.256-0.084-0.48 2-1.404 5.289-1 5.672-0.532 0.383 0.48-0.107 3.768-1.98 5.343-0.287 0.245-0.564 0.117-0.436-0.201 0.427-1.053 1.373-3.427 0.927-3.992z"></path>
</symbol>
<symbol id="css3" viewBox="0 0 32 32">
<path fill="#1572b6" style="fill: var(--color1, #1572b6)" d="M2 0h28l-2.547 28.751-11.484 3.249-11.42-3.251zM24.787 5.884l-17.573-0.004 0.284 3.496 13.5 0.003-0.34 3.621h-8.853l0.32 3.431h8.243l-0.488 4.697-3.88 1.072-3.941-1.080-0.251-2.813h-3.48l0.387 5.14 7.287 2.271 7.164-2.040z"></path>
</symbol>
<symbol id="docker" viewBox="0 0 32 32">
<path fill="#1488c6" style="fill: var(--color2, #1488c6)" d="M6.427 23.033c-0.912 0-1.739-0.747-1.739-1.653s0.747-1.657 1.74-1.657c0.997 0 1.747 0.747 1.747 1.656s-0.829 1.653-1.748 1.655zM27.776 14.016c-0.18-1.323-1-2.4-2.080-3.227l-0.42-0.333-0.339 0.413c-0.659 0.747-0.92 2.071-0.84 3.060 0.080 0.749 0.32 1.493 0.739 2.072-0.339 0.173-0.757 0.333-1.080 0.503-0.76 0.249-1.499 0.333-2.24 0.333h-21.387l-0.080 0.493c-0.16 1.576 0.080 3.227 0.749 4.72l0.325 0.58v0.080c2 3.311 5.56 4.8 9.437 4.8 7.459 0 13.576-3.227 16.476-10.177 1.9 0.083 3.819-0.413 4.72-2.235l0.24-0.413-0.4-0.249c-1.080-0.659-2.56-0.747-3.8-0.413zM17.099 12.693h-3.237v3.227h3.24v-3.229zM17.099 8.636h-3.237v3.227h3.24v-3.223zM17.099 4.497h-3.237v3.227h3.24v-3.227zM21.059 12.693h-3.219v3.227h3.227v-3.229zM9.061 12.693h-3.217v3.227h3.229v-3.229zM13.101 12.693h-3.2v3.227h3.219v-3.229zM5.061 12.693h-3.195v3.227h3.237v-3.229zM13.101 8.636h-3.2v3.227h3.219v-3.223zM9.041 8.636h-3.192v3.227h3.217v-3.223z"></path>
</symbol>
<symbol id="git" viewBox="0 0 32 32">
<path fill="#f05032" style="fill: var(--color3, #f05032)" d="M31.395 14.573l-13.972-13.971c-0.805-0.804-2.109-0.804-2.917 0l-2.895 2.9 3.68 3.68c0.86-0.287 1.839-0.093 2.519 0.588 0.688 0.687 0.877 1.677 0.584 2.533l3.544 3.547c0.86-0.297 1.849-0.104 2.533 0.58 0.961 0.96 0.961 2.512 0 3.472-0.959 0.959-2.508 0.959-3.467 0-0.719-0.721-0.899-1.783-0.539-2.661l-3.319-3.301v8.7c0.235 0.115 0.456 0.271 0.651 0.464 0.951 0.961 0.951 2.511 0 3.467-0.959 0.961-2.519 0.961-3.479 0-0.959-0.959-0.959-2.505 0-3.464 0.243-0.24 0.516-0.421 0.807-0.541v-8.785c-0.289-0.121-0.565-0.296-0.8-0.535-0.727-0.727-0.901-1.789-0.528-2.679l-3.616-3.633-9.581 9.575c-0.8 0.807-0.8 2.112 0 2.919l13.973 13.969c0.805 0.805 2.109 0.805 2.915 0l13.907-13.907c0.807-0.804 0.807-2.109 0-2.916z"></path>
</symbol>
<symbol id="github" viewBox="0 0 32 32">
<path d="M16 0.396c-8.84 0-16 7.164-16 16 0 7.071 4.584 13.067 10.94 15.18 0.8 0.151 1.093-0.344 1.093-0.769 0-0.38-0.013-1.387-0.020-2.72-4.451 0.965-5.389-2.147-5.389-2.147-0.728-1.847-1.78-2.34-1.78-2.34-1.449-0.992 0.112-0.972 0.112-0.972 1.607 0.112 2.451 1.648 2.451 1.648 1.427 2.447 3.745 1.74 4.66 1.331 0.144-1.035 0.556-1.74 1.013-2.14-3.553-0.4-7.288-1.776-7.288-7.907 0-1.747 0.62-3.173 1.647-4.293-0.18-0.404-0.72-2.031 0.14-4.235 0 0 1.34-0.429 4.4 1.64 1.28-0.356 2.64-0.532 4-0.54 1.36 0.008 2.72 0.184 4 0.54 3.040-2.069 4.38-1.64 4.38-1.64 0.86 2.204 0.32 3.831 0.16 4.235 1.020 1.12 1.64 2.547 1.64 4.293 0 6.147-3.74 7.5-7.3 7.893 0.56 0.48 1.080 1.461 1.080 2.96 0 2.141-0.020 3.861-0.020 4.381 0 0.42 0.28 0.92 1.1 0.76 6.401-2.099 10.981-8.099 10.981-15.159 0-8.836-7.164-16-16-16z"></path>
</symbol>
<symbol id="gmail" viewBox="0 0 32 32">
<path fill="#d14836" style="fill: var(--color4, #d14836)" d="M32 6v20c0 1.133-0.867 2-2 2h-2v-18.151l-12 8.617-12-8.617v18.151h-2c-1.135 0-2-0.867-2-2v-20c0-0.567 0.216-1.067 0.575-1.424 0.359-0.363 0.86-0.576 1.425-0.576h0.667l13.333 9.667 13.333-9.667h0.667c0.567 0 1.067 0.216 1.425 0.576 0.36 0.357 0.575 0.857 0.575 1.424z"></path>
</symbol>
<symbol id="html5" viewBox="0 0 32 32">
<path fill="#e34f26" style="fill: var(--color5, #e34f26)" d="M2 0h28l-2.547 28.751-11.484 3.249-11.419-3.251zM11.375 13l-0.309-3.624 13.412 0.004 0.307-3.496-17.568-0.004 0.931 10.68h12.168l-0.435 4.568-3.88 1.072-3.94-1.080-0.251-2.813h-3.479l0.44 5.561 7.229 1.933 7.172-1.924 0.992-10.876z"></path>
</symbol>
<symbol id="java" viewBox="0 0 32 32">
<path fill="#007396" style="fill: var(--color6, #007396)" d="M11.801 24.747c0 0-1.223 0.712 0.871 0.952 2.536 0.291 3.832 0.249 6.625-0.281 0 0 0.736 0.461 1.761 0.861-6.265 2.684-14.177-0.157-9.257-1.532zM11.035 21.244c0 0-1.371 1.015 0.723 1.232 2.709 0.279 4.848 0.303 8.551-0.411 0 0 0.512 0.519 1.316 0.803-7.572 2.215-16.009 0.173-10.589-1.624zM17.488 15.3c1.544 1.777-0.405 3.377-0.405 3.377s3.919-2.024 2.119-4.557c-1.681-2.363-2.971-3.536 4.009-7.584 0-0.001-10.955 2.735-5.723 8.764zM25.773 27.339c0 0 0.905 0.745-0.996 1.321-3.616 1.096-15.051 1.425-18.225 0.044-1.141-0.497 1-1.187 1.672-1.331 0.703-0.152 1.104-0.124 1.104-0.124-1.271-0.895-8.208 1.756-3.524 2.516 12.773 2.071 23.283-0.933 19.969-2.427zM12.389 17.613c0 0-5.816 1.381-2.059 1.883 1.585 0.212 4.748 0.164 7.693-0.083 2.408-0.203 4.824-0.636 4.824-0.636s-0.849 0.363-1.464 0.783c-5.905 1.553-17.315 0.831-14.029-0.757 2.776-1.341 5.035-1.189 5.035-1.189zM22.821 23.445c6.004-3.12 3.228-6.119 1.291-5.713-0.473 0.099-0.687 0.184-0.687 0.184s0.176-0.276 0.513-0.396c3.833-1.348 6.781 3.975-1.237 6.083 0-0.001 0.093-0.083 0.12-0.157zM19.201 0c0 0 3.325 3.325-3.153 8.44-5.195 4.103-1.184 6.443-0.001 9.115-3.032-2.737-5.257-5.144-3.765-7.385 2.192-3.292 8.263-4.887 6.92-10.169zM12.979 31.899c5.763 0.369 14.612-0.204 14.821-2.931 0 0-0.403 1.033-4.763 1.855-4.917 0.925-10.985 0.817-14.583 0.224 0-0.001 0.737 0.609 4.524 0.852z"></path>
</symbol>
<symbol id="javascript" viewBox="0 0 32 32">
<path fill="#f7df1e" style="fill: var(--color7, #f7df1e)" d="M0 0h32v32h-32zM29.379 24.368c-0.233-1.46-1.184-2.687-4.004-3.831-0.981-0.46-2.072-0.78-2.396-1.52-0.121-0.44-0.14-0.68-0.061-0.94 0.2-0.861 1.22-1.12 2.020-0.88 0.52 0.16 1 0.56 1.301 1.2 1.379-0.901 1.379-0.901 2.34-1.5-0.36-0.56-0.539-0.801-0.781-1.040-0.84-0.94-1.959-1.42-3.779-1.379l-0.94 0.119c-0.901 0.22-1.76 0.7-2.28 1.34-1.52 1.721-1.081 4.721 0.759 5.961 1.82 1.36 4.481 1.659 4.821 2.94 0.32 1.56-1.16 2.060-2.621 1.88-1.081-0.24-1.68-0.781-2.34-1.781l-2.44 1.401c0.28 0.64 0.6 0.919 1.080 1.479 2.32 2.341 8.12 2.221 9.161-1.339 0.039-0.12 0.32-0.94 0.099-2.2zM17.401 14.708h-2.997c0 2.584-0.012 5.152-0.012 7.74 0 1.643 0.084 3.151-0.184 3.615-0.44 0.919-1.573 0.801-2.088 0.64-0.528-0.261-0.796-0.621-1.107-1.14-0.084-0.14-0.147-0.261-0.169-0.261l-2.433 1.5c0.407 0.84 1 1.563 1.765 2.023 1.14 0.68 2.672 0.9 4.276 0.54 1.044-0.301 1.944-0.921 2.415-1.881 0.68-1.24 0.536-2.76 0.529-4.461 0.016-2.739 0-5.479 0-8.239z"></path>
</symbol>
<symbol id="linkedin" viewBox="0 0 32 32">
<path fill="#0077b5" style="fill: var(--color8, #0077b5)" d="M27.263 27.269h-4.739v-7.425c0-1.771-0.036-4.049-2.469-4.049-2.471 0-2.848 1.927-2.848 3.919v7.556h-4.739v-15.269h4.552v2.081h0.061c0.636-1.2 2.183-2.467 4.493-2.467 4.801 0 5.689 3.16 5.689 7.273zM7.116 9.911c-1.525 0-2.751-1.235-2.751-2.753 0-1.517 1.227-2.751 2.751-2.751 1.52 0 2.752 1.233 2.752 2.751 0 1.519-1.233 2.753-2.752 2.753zM9.492 27.269h-4.752v-15.269h4.752zM29.633 0h-27.272c-1.305 0-2.361 1.032-2.361 2.305v27.389c0 1.275 1.056 2.305 2.361 2.305h27.268c1.304 0 2.371-1.031 2.371-2.305v-27.389c0-1.273-1.067-2.305-2.371-2.305z"></path>
</symbol>
<symbol id="linux" viewBox="0 0 32 32">
<path fill="#fcc624" style="fill: var(--color9, #fcc624)" d="M16.671 0c-0.207 0-0.42 0.011-0.639 0.028-5.636 0.444-4.141 6.409-4.227 8.397-0.103 1.457-0.4 2.605-1.401 4.028-1.18 1.401-2.836 3.667-3.621 6.028-0.371 1.109-0.547 2.245-0.383 3.319-0.052 0.045-0.101 0.091-0.148 0.18-0.347 0.357-0.599 0.801-0.883 1.119-0.265 0.265-0.647 0.356-1.063 0.533-0.417 0.181-0.877 0.359-1.152 0.908-0.12 0.251-0.181 0.524-0.176 0.801 0 0.265 0.036 0.535 0.073 0.715 0.077 0.532 0.155 0.972 0.052 1.293-0.331 0.907-0.372 1.528-0.14 1.98 0.232 0.445 0.713 0.625 1.252 0.801 1.081 0.267 2.547 0.18 3.7 0.799 1.235 0.623 2.488 0.895 3.488 0.627 0.701-0.153 1.293-0.617 1.611-1.26 0.783-0.004 1.64-0.359 3.013-0.445 0.932-0.077 2.099 0.356 3.437 0.265 0.033 0.18 0.084 0.265 0.152 0.445l0.004 0.004c0.521 1.037 1.484 1.509 2.512 1.428 1.028-0.080 2.123-0.715 3.009-1.741 0.841-1.020 2.244-1.445 3.171-2.004 0.464-0.265 0.839-0.625 0.865-1.137 0.031-0.533-0.265-1.083-0.952-1.836v-0.129l-0.004-0.004c-0.227-0.267-0.333-0.713-0.451-1.235-0.113-0.535-0.243-1.048-0.656-1.395h-0.004c-0.079-0.072-0.164-0.089-0.251-0.18-0.075-0.051-0.161-0.083-0.253-0.085 0.575-1.704 0.352-3.4-0.231-4.925-0.711-1.88-1.953-3.517-2.9-4.644-1.061-1.34-2.101-2.609-2.081-4.492 0.036-2.869 0.316-8.177-4.725-8.185zM17.376 4.54h0.017c0.284 0 0.528 0.083 0.779 0.264 0.255 0.18 0.44 0.443 0.585 0.711 0.14 0.345 0.211 0.612 0.221 0.965 0-0.027 0.008-0.053 0.008-0.079v0.139c-0.003-0.009-0.005-0.020-0.005-0.028l-0.005-0.032c-0.003 0.324-0.071 0.644-0.2 0.941-0.063 0.167-0.159 0.32-0.284 0.447-0.039-0.021-0.076-0.040-0.117-0.056-0.14-0.060-0.265-0.085-0.38-0.177-0.095-0.037-0.193-0.068-0.292-0.088 0.065-0.079 0.193-0.177 0.243-0.264 0.071-0.171 0.109-0.352 0.117-0.536v-0.025c0.003-0.18-0.024-0.361-0.081-0.533-0.060-0.18-0.135-0.268-0.244-0.445-0.112-0.088-0.223-0.176-0.356-0.176h-0.021c-0.124 0-0.235 0.040-0.349 0.176-0.127 0.125-0.221 0.276-0.273 0.445-0.071 0.169-0.112 0.352-0.12 0.533v0.025c0.003 0.119 0.011 0.239 0.027 0.356-0.257-0.089-0.584-0.18-0.809-0.269-0.013-0.087-0.021-0.176-0.024-0.265v-0.027c-0.011-0.352 0.057-0.701 0.2-1.025 0.109-0.292 0.309-0.541 0.573-0.711 0.228-0.172 0.505-0.265 0.792-0.265zM13.427 4.619h0.048c0.189 0 0.36 0.064 0.532 0.18 0.195 0.172 0.352 0.384 0.459 0.62 0.12 0.265 0.188 0.535 0.204 0.889v0.005c0.009 0.179 0.008 0.268-0.003 0.355v0.107c-0.040 0.009-0.075 0.024-0.111 0.032-0.203 0.073-0.365 0.18-0.524 0.267 0.016-0.119 0.017-0.239 0.004-0.356v-0.020c-0.016-0.177-0.052-0.265-0.109-0.444-0.041-0.136-0.117-0.257-0.221-0.356-0.065-0.060-0.153-0.091-0.244-0.085h-0.028c-0.095 0.008-0.173 0.055-0.248 0.176-0.085 0.103-0.14 0.228-0.16 0.36-0.036 0.144-0.047 0.292-0.031 0.441v0.019c0.016 0.18 0.049 0.268 0.108 0.445 0.060 0.179 0.129 0.267 0.22 0.357 0.015 0.012 0.028 0.024 0.045 0.032-0.093 0.076-0.156 0.093-0.235 0.181-0.049 0.037-0.107 0.080-0.175 0.091-0.139-0.167-0.261-0.347-0.367-0.536-0.128-0.28-0.195-0.584-0.207-0.889-0.023-0.301 0.015-0.603 0.107-0.891 0.073-0.263 0.203-0.505 0.377-0.713 0.171-0.177 0.347-0.267 0.557-0.267zM15.255 6.893c0.441 0 0.976 0.087 1.62 0.532 0.391 0.267 0.697 0.359 1.404 0.624h0.004c0.34 0.181 0.54 0.355 0.637 0.532v-0.175c0.097 0.196 0.104 0.424 0.021 0.627-0.164 0.415-0.688 0.859-1.419 1.124v0.003c-0.357 0.18-0.668 0.444-1.033 0.62-0.368 0.18-0.784 0.389-1.349 0.356-0.203 0.011-0.407-0.020-0.597-0.089-0.147-0.080-0.291-0.168-0.429-0.264-0.26-0.18-0.484-0.443-0.816-0.62v-0.007h-0.007c-0.533-0.328-0.821-0.683-0.915-0.948-0.092-0.357-0.007-0.625 0.257-0.8 0.299-0.18 0.507-0.361 0.644-0.448 0.139-0.099 0.191-0.136 0.235-0.175h0.003v-0.004c0.225-0.269 0.581-0.625 1.119-0.801 0.185-0.048 0.392-0.087 0.621-0.087zM18.987 9.751c0.479 1.889 1.596 4.633 2.315 5.964 0.381 0.712 1.14 2.212 1.469 4.032 0.208-0.007 0.439 0.024 0.684 0.085 0.861-2.228-0.728-4.623-1.452-5.288-0.295-0.268-0.309-0.447-0.164-0.447 0.785 0.712 1.82 2.096 2.195 3.676 0.172 0.713 0.212 1.472 0.028 2.227 0.089 0.037 0.18 0.081 0.273 0.089 1.376 0.712 1.884 1.251 1.64 2.049v-0.057c-0.081-0.004-0.16 0-0.241 0h-0.020c0.201-0.623-0.243-1.1-1.42-1.632-1.22-0.533-2.195-0.448-2.361 0.62-0.009 0.057-0.016 0.088-0.023 0.18-0.091 0.031-0.185 0.071-0.279 0.085-0.573 0.357-0.883 0.892-1.057 1.583-0.173 0.711-0.227 1.541-0.273 2.492v0.004c-0.028 0.445-0.228 1.117-0.425 1.801-2 1.429-4.773 2.051-7.132 0.445-0.148-0.257-0.328-0.499-0.536-0.711-0.099-0.167-0.224-0.316-0.367-0.445 0.243 0 0.451-0.039 0.62-0.089 0.193-0.089 0.343-0.251 0.419-0.445 0.144-0.356 0-0.929-0.46-1.551-0.46-0.623-1.241-1.327-2.384-2.028-0.84-0.532-1.315-1.16-1.533-1.861-0.22-0.712-0.191-1.447-0.020-2.193 0.327-1.427 1.164-2.813 1.699-3.684 0.143-0.087 0.049 0.18-0.544 1.299-0.528 1.001-1.521 3.329-0.163 5.139 0.051-1.319 0.344-2.62 0.863-3.835 0.752-1.704 2.324-4.672 2.448-7.024 0.064 0.048 0.289 0.18 0.385 0.269 0.291 0.177 0.507 0.444 0.787 0.62 0.281 0.268 0.636 0.447 1.168 0.447 0.052 0.004 0.1 0.008 0.148 0.008 0.548 0 0.972-0.179 1.328-0.357 0.387-0.179 0.695-0.445 0.987-0.533h0.007c0.623-0.18 1.115-0.536 1.393-0.933zM21.901 21.695c0.049 0.801 0.457 1.66 1.176 1.836 0.784 0.179 1.912-0.444 2.388-1.020l0.281-0.012c0.42-0.011 0.769 0.013 1.129 0.356l0.004 0.004c0.277 0.265 0.407 0.708 0.521 1.168 0.113 0.535 0.205 1.040 0.545 1.421 0.648 0.703 0.86 1.208 0.848 1.52l0.004-0.008v0.024l-0.004-0.016c-0.020 0.349-0.247 0.528-0.664 0.793-0.84 0.535-2.328 0.949-3.276 2.093-0.824 0.983-1.828 1.519-2.715 1.588-0.885 0.071-1.649-0.267-2.099-1.197l-0.007-0.004c-0.28-0.535-0.16-1.367 0.075-2.253 0.235-0.891 0.571-1.793 0.617-2.531 0.049-0.952 0.101-1.78 0.26-2.419 0.16-0.62 0.411-1.063 0.855-1.312zM7.481 21.76h0.013c0.071 0 0.14 0.007 0.209 0.019 0.501 0.073 0.941 0.444 1.364 1.003l1.213 2.219 0.004 0.004c0.324 0.711 1.005 1.419 1.585 2.184 0.579 0.797 1.027 1.508 0.972 2.093v0.008c-0.076 0.992-0.639 1.531-1.5 1.725-0.86 0.18-2.027 0.003-3.193-0.619-1.291-0.715-2.824-0.625-3.809-0.803-0.492-0.088-0.815-0.268-0.964-0.535-0.148-0.265-0.151-0.801 0.164-1.64v-0.004l0.003-0.004c0.156-0.445 0.040-1.004-0.036-1.492-0.073-0.535-0.111-0.945 0.057-1.253 0.213-0.445 0.528-0.532 0.919-0.711 0.393-0.18 0.855-0.269 1.221-0.625h0.003v-0.004c0.341-0.357 0.593-0.801 0.891-1.117 0.253-0.268 0.507-0.448 0.884-0.448zM17.027 9.661c-0.58 0.268-1.26 0.713-1.984 0.713-0.723 0-1.293-0.356-1.705-0.621-0.207-0.179-0.373-0.357-0.499-0.447-0.219-0.179-0.192-0.445-0.099-0.445 0.145 0.021 0.172 0.18 0.265 0.268 0.128 0.088 0.287 0.265 0.481 0.444 0.388 0.267 0.907 0.623 1.555 0.623 0.647 0 1.404-0.356 1.864-0.621 0.26-0.18 0.593-0.445 0.864-0.623 0.208-0.183 0.199-0.357 0.372-0.357 0.172 0.021 0.045 0.179-0.196 0.444-0.241 0.18-0.615 0.447-0.92 0.624zM15.584 7.549v-0.029c-0.008-0.025 0.017-0.056 0.039-0.067 0.099-0.057 0.24-0.036 0.347 0.005 0.084 0 0.213 0.089 0.2 0.18-0.008 0.065-0.113 0.088-0.18 0.088-0.073 0-0.123-0.057-0.188-0.091-0.069-0.024-0.195-0.011-0.217-0.087zM14.849 7.549c-0.027 0.077-0.151 0.065-0.221 0.088-0.063 0.033-0.115 0.091-0.185 0.091-0.068 0-0.175-0.025-0.183-0.091-0.012-0.088 0.117-0.177 0.2-0.177 0.108-0.041 0.245-0.063 0.345-0.007 0.025 0.012 0.048 0.040 0.040 0.067v0.028z"></path>
</symbol>
<symbol id="mongodb" viewBox="0 0 32 32">
<path fill="#47a248" style="fill: var(--color10, #47a248)" d="M22.907 12.691c-1.684-7.413-5.656-9.849-6.083-10.781-0.469-0.657-0.977-1.909-0.977-1.909-0.003 0.025-0.005 0.041-0.007 0.065v0.017h-0.001c-0.003 0.020-0.004 0.033-0.005 0.052v0.020h-0.003c0 0.013-0.003 0.024-0.003 0.035v0.035h-0.004c-0.001 0.011-0.001 0.024-0.004 0.033v0.028h-0.003c0 0.009 0 0.020-0.003 0.028v0.027h-0.003c0 0.013-0.001 0.029-0.003 0.043v0.003c-0.004 0.023-0.008 0.045-0.012 0.067v0.011h-0.003c-0.001 0.005-0.004 0.011-0.004 0.016v0.023h-0.004v0.029h-0.007v0.024h-0.007v0.028h-0.005v0.025h-0.005v0.023h-0.008v0.019h-0.005v0.024h-0.005v0.019h-0.007v0.017h-0.004v0.020h-0.005c-0.001 0.001-0.001 0.004-0.001 0.005v0.013h-0.004c-0.001 0.003-0.001 0.005-0.001 0.008v0.008h-0.003c-0.001 0.004-0.003 0.011-0.003 0.013-0.004 0.009-0.009 0.019-0.013 0.028v0.003c-0.003 0.003-0.005 0.007-0.007 0.009v0.011h-0.005v0.011h-0.007v0.011h-0.004v0.013h-0.008v0.019h-0.005v0.005h-0.005v0.011h-0.005v0.015h-0.005v0.011h-0.008v0.015h-0.005v0.011h-0.007v0.011h-0.004v0.013h-0.007v0.011h-0.005v0.008h-0.005v0.011h-0.008v0.012h-0.005v0.008h-0.007v0.011h-0.005v0.015h-0.007v0.005h-0.004v0.011h-0.008v0.005h-0.005v0.013h-0.005v0.005h-0.005v0.011h-0.007v0.008h-0.004l-0.003 0.005v0.005h-0.003c-0.001 0.003-0.003 0.003-0.003 0.005v0.001h-0.001c-0.001 0.004-0.003 0.007-0.005 0.009v0.004h-0.001c-0.007 0.008-0.011 0.016-0.016 0.024v0.001c-0.003 0.003-0.009 0.008-0.012 0.013v0.003h-0.001c-0.001 0.001-0.004 0.003-0.004 0.004v0.004h-0.003l-0.004 0.004v0.001h-0.001c0 0.001-0.003 0.003-0.004 0.005v0.005h-0.004l-0.003 0.003v0.003h-0.003c0 0.003-0.003 0.003-0.003 0.004v0.004h-0.005c0 0.001-0.001 0.003-0.003 0.004v0.008h-0.004v0.005h-0.005v0.008h-0.005v0.011h-0.007v-0.011h-0.007v0.005h-0.005v0.008h-0.007v0.011h-0.007v0.005h-0.005v0.008h-0.005v0.005h-0.005v0.011h-0.008v0.005h-0.005v0.008h-0.007v0.005h-0.005v0.007h-0.007v0.013h-0.003v0.005h-0.008v0.007h-0.005v0.003h-0.005v0.005h-0.007v0.013h-0.005v0.005h-0.007v0.005h-0.005v0.008h-0.007v0.005h-0.007v0.005h-0.005v0.005h-0.005v0.013h-0.005v0.007h-0.008v0.005h-0.005v0.005h-0.007v0.008h-0.005v0.005h-0.007v0.009h-0.005v0.005h-0.008v0.008h-0.003v0.005h-0.005v0.005h-0.007v0.005h-0.005v0.008h-0.007v0.005h-0.004c-0.001 0.001-0.001 0.003-0.001 0.003v0.003h-0.003l-0.005 0.005c0 0-0.003 0.003-0.005 0.004v0.008h-0.005v0.007h-0.005v0.005h-0.005v0.005h-0.004l-0.004 0.004v0.004h-0.003l-0.003 0.003v0.004h-0.003c-0.007 0.008-0.009 0.013-0.019 0.021-0.003 0.003-0.011 0.009-0.016 0.013-0.016 0.011-0.036 0.028-0.052 0.043-0.011 0.007-0.021 0.016-0.029 0.023v0.001h-0.001c-0.021 0.017-0.041 0.033-0.065 0.052v0.001c-0.032 0.027-0.063 0.052-0.099 0.083v-0.001h-0.003c-0.076 0.063-0.156 0.133-0.248 0.212v0.001h-0.001c-0.225 0.197-0.493 0.451-0.793 0.757l-0.025 0.025c-1.813 1.876-4.671 5.785-4.972 12.103-0.027 0.523-0.021 1.031 0.008 1.525v0.012c0.145 2.489 0.927 4.615 1.904 6.341v0.001c0.389 0.688 0.809 1.313 1.235 1.873v0.001c1.469 1.94 2.969 3.089 3.352 3.368 0.588 1.364 0.533 3.705 0.533 3.705l0.859 0.287c0 0-0.175-2.268 0.071-3.363 0.076-0.343 0.256-0.635 0.465-0.883 0.141-0.1 0.56-0.401 1.063-0.86 0.024-0.025 0.037-0.048 0.059-0.072 2.028-1.891 5.816-6.547 4.517-14.132z"></path>
</symbol>
<symbol id="mysql" viewBox="0 0 32 32">
<path fill="#4479a1" style="fill: var(--color11, #4479a1)" d="M21.873 7.568c-0.153 0-0.257 0.019-0.365 0.044v0.017h0.019c0.072 0.139 0.195 0.24 0.285 0.364 0.072 0.143 0.133 0.285 0.205 0.427l0.019-0.020c0.125-0.088 0.187-0.229 0.187-0.444-0.053-0.063-0.061-0.125-0.107-0.187-0.053-0.089-0.168-0.133-0.243-0.201zM7.693 25.16h-1.236c-0.040-2.083-0.164-4.040-0.36-5.88h-0.011l-1.88 5.88h-0.94l-1.867-5.88h-0.013c-0.137 1.764-0.224 3.724-0.26 5.88h-1.127c0.073-2.621 0.256-5.080 0.547-7.373h1.533l1.78 5.419h0.011l1.796-5.419h1.46c0.323 2.687 0.512 5.147 0.567 7.373zM13.049 19.72c-0.504 2.727-1.168 4.711-1.989 5.947-0.643 0.955-1.347 1.431-2.111 1.431-0.204 0-0.453-0.061-0.755-0.184v-0.659c0.147 0.023 0.32 0.035 0.515 0.035 0.357 0 0.644-0.1 0.863-0.296 0.263-0.24 0.393-0.509 0.393-0.807 0-0.207-0.103-0.627-0.307-1.259l-1.352-4.208h1.213l0.969 3.147c0.219 0.715 0.311 1.213 0.273 1.497 0.533-1.419 0.904-2.969 1.113-4.644zM29.483 25.16h-3.507v-7.373h1.18v6.467h2.327zM25.056 25.34l-1.355-0.667c0.12-0.101 0.236-0.211 0.34-0.333 0.577-0.675 0.864-1.677 0.864-3.004 0-2.44-0.957-3.661-2.873-3.661-0.939 0-1.672 0.309-2.2 0.929-0.573 0.677-0.861 1.675-0.861 2.993 0 1.296 0.253 2.248 0.765 2.853 0.467 0.547 1.169 0.82 2.111 0.82 0.352 0 0.675-0.044 0.967-0.131l1.767 1.029zM20.667 23.684c-0.3-0.48-0.449-1.253-0.449-2.315 0-1.857 0.565-2.787 1.693-2.787 0.591 0 1.027 0.223 1.303 0.667 0.299 0.483 0.448 1.248 0.448 2.297 0 1.872-0.565 2.811-1.693 2.811-0.593 0-1.027-0.223-1.301-0.673zM18.456 23.117c0 0.627-0.229 1.141-0.688 1.541s-1.071 0.6-1.845 0.6c-0.724 0-1.419-0.229-2.097-0.687l0.316-0.635c0.584 0.293 1.111 0.437 1.587 0.437 0.443 0 0.791-0.097 1.044-0.293 0.251-0.196 0.4-0.472 0.4-0.82 0-0.44-0.307-0.813-0.864-1.127-0.517-0.284-1.551-0.876-1.551-0.876-0.563-0.409-0.843-0.848-0.843-1.569 0-0.6 0.209-1.080 0.627-1.447 0.42-0.371 0.96-0.553 1.627-0.553 0.683 0 1.307 0.181 1.867 0.547l-0.284 0.635c-0.48-0.203-0.953-0.307-1.419-0.307-0.377 0-0.669 0.091-0.872 0.275-0.204 0.181-0.331 0.413-0.331 0.699 0 0.437 0.312 0.813 0.888 1.133 0.524 0.287 1.583 0.893 1.583 0.893 0.577 0.407 0.864 0.84 0.856 1.553zM30.965 15.315c-0.713-0.019-1.267 0.053-1.729 0.251-0.133 0.053-0.347 0.053-0.365 0.223 0.073 0.071 0.084 0.187 0.147 0.285 0.107 0.179 0.291 0.417 0.461 0.543 0.187 0.147 0.373 0.288 0.569 0.413 0.347 0.213 0.74 0.34 1.080 0.555 0.193 0.125 0.391 0.284 0.587 0.417 0.097 0.067 0.16 0.187 0.285 0.229v-0.027c-0.061-0.080-0.080-0.196-0.14-0.285-0.089-0.089-0.179-0.169-0.267-0.257-0.259-0.347-0.58-0.649-0.927-0.9-0.285-0.195-0.909-0.467-1.027-0.793l-0.017-0.019c0.195-0.017 0.427-0.088 0.613-0.141 0.303-0.080 0.58-0.063 0.893-0.141 0.141-0.036 0.284-0.080 0.427-0.125v-0.080c-0.16-0.16-0.28-0.377-0.445-0.527-0.453-0.393-0.956-0.776-1.472-1.097-0.28-0.179-0.635-0.293-0.929-0.445-0.107-0.053-0.285-0.080-0.347-0.169-0.16-0.195-0.253-0.453-0.367-0.685-0.256-0.491-0.507-1.033-0.729-1.551-0.16-0.349-0.257-0.697-0.453-1.017-0.92-1.516-1.916-2.435-3.448-3.333-0.329-0.187-0.724-0.267-1.141-0.365-0.223-0.011-0.445-0.027-0.667-0.036-0.147-0.063-0.288-0.232-0.413-0.313-0.507-0.32-1.819-1.013-2.192-0.096-0.24 0.579 0.356 1.149 0.563 1.443 0.153 0.204 0.347 0.437 0.453 0.667 0.063 0.155 0.080 0.313 0.143 0.475 0.141 0.392 0.276 0.829 0.463 1.196 0.097 0.187 0.204 0.383 0.329 0.551 0.072 0.097 0.195 0.143 0.223 0.303-0.125 0.181-0.133 0.445-0.205 0.667-0.32 1.009-0.195 2.257 0.259 3 0.143 0.221 0.483 0.712 0.937 0.524 0.4-0.16 0.312-0.667 0.427-1.113 0.027-0.107 0.009-0.177 0.064-0.249v0.020c0.125 0.251 0.251 0.489 0.365 0.74 0.275 0.437 0.755 0.891 1.156 1.193 0.213 0.16 0.383 0.437 0.649 0.536v-0.027h-0.020c-0.057-0.077-0.133-0.115-0.205-0.177-0.16-0.16-0.34-0.356-0.467-0.533-0.373-0.503-0.703-1.053-0.996-1.624-0.147-0.28-0.269-0.581-0.387-0.857-0.053-0.107-0.053-0.267-0.143-0.32-0.133 0.195-0.329 0.364-0.427 0.604-0.169 0.384-0.187 0.856-0.251 1.347-0.036 0.009-0.019 0-0.036 0.019-0.285-0.069-0.383-0.365-0.489-0.613-0.267-0.633-0.311-1.651-0.080-2.38 0.063-0.187 0.329-0.776 0.223-0.955-0.056-0.169-0.232-0.267-0.329-0.404-0.116-0.165-0.24-0.38-0.32-0.569-0.213-0.499-0.32-1.051-0.552-1.549-0.107-0.231-0.293-0.472-0.445-0.684-0.169-0.24-0.356-0.409-0.491-0.693-0.044-0.097-0.107-0.259-0.036-0.365 0.019-0.072 0.056-0.1 0.125-0.12 0.117-0.096 0.447 0.029 0.563 0.083 0.329 0.133 0.607 0.259 0.883 0.445 0.125 0.088 0.26 0.257 0.42 0.301h0.187c0.285 0.063 0.607 0.019 0.873 0.097 0.473 0.152 0.9 0.373 1.283 0.613 1.168 0.741 2.128 1.793 2.78 3.048 0.107 0.205 0.153 0.393 0.251 0.607 0.187 0.44 0.417 0.884 0.607 1.309 0.187 0.42 0.367 0.848 0.635 1.196 0.133 0.187 0.669 0.284 0.909 0.381 0.177 0.080 0.453 0.153 0.613 0.251 0.307 0.187 0.605 0.4 0.893 0.605 0.147 0.101 0.591 0.324 0.617 0.504z"></path>
</symbol>
<symbol id="next-dot-js" viewBox="0 0 32 32">
<path d="M23.751 30.003c-0.119 0.063-0.112 0.088 0.007 0.028 0.036-0.016 0.067-0.037 0.093-0.063l-0 0c0-0.021-0.003-0.019-0.1 0.035zM23.988 29.877c-0.056 0.044-0.056 0.047 0.012 0.012 0.037-0.019 0.069-0.040 0.069-0.047 0-0.025-0.016-0.019-0.081 0.035zM24.144 29.783c-0.056 0.044-0.056 0.047 0.012 0.012 0.037-0.019 0.069-0.040 0.069-0.047 0-0.025-0.016-0.019-0.081 0.035zM24.3 29.689c-0.056 0.044-0.056 0.047 0.012 0.012 0.037-0.019 0.069-0.040 0.069-0.047 0-0.025-0.016-0.019-0.081 0.035zM24.516 29.549c-0.109 0.069-0.144 0.116-0.047 0.063 0.069-0.040 0.181-0.125 0.163-0.128-0.044 0.019-0.082 0.041-0.118 0.067l0.002-0.001zM14.952 0.008c-0.069 0.007-0.288 0.028-0.485 0.044-4.544 0.409-8.801 2.861-11.497 6.631-1.43 1.965-2.431 4.334-2.813 6.904l-0.011 0.087c-0.128 0.879-0.144 1.139-0.144 2.331s0.016 1.451 0.144 2.331c0.869 6.008 5.145 11.056 10.944 12.927 1.039 0.335 2.133 0.563 3.377 0.7 0.485 0.053 2.58 0.053 3.065 0 2.148-0.237 3.969-0.769 5.764-1.685 0.275-0.141 0.328-0.179 0.291-0.209-0.312-0.379-1.167-1.516-2.015-2.659l-0.591-0.834-2.559-3.456-3.205-4.744c-2.045-3.101-3.108-4.645-4.18-6.183l0.952 1.441c-0.012-0.003-0.025 2.105-0.031 4.679-0.009 4.507-0.012 4.688-0.069 4.795-0.056 0.125-0.152 0.224-0.271 0.283l-0.003 0.001c-0.1 0.051-0.188 0.060-0.66 0.060h-0.541l-0.144-0.091c-0.089-0.057-0.16-0.134-0.208-0.225l-0.002-0.003-0.065-0.141 0.007-6.271 0.009-6.273 0.097-0.121c0.065-0.076 0.142-0.14 0.228-0.188l0.004-0.002c0.128-0.063 0.179-0.069 0.72-0.069 0.639 0 0.744 0.025 0.911 0.207-0.11-0.286 1.162 1.609 2.423 3.511l1.437 2.303c2.077 3.149 4.916 7.449 6.312 9.561l2.533 3.837 0.128-0.084c1.249-0.838 2.329-1.789 3.27-2.865l0.016-0.019c1.947-2.219 3.292-5.011 3.755-8.091l0.011-0.088c0.128-0.879 0.144-1.139 0.144-2.331s-0.016-1.451-0.144-2.331c-0.869-6.008-5.145-11.056-10.944-12.927-0.962-0.319-2.092-0.565-3.257-0.691l-0.074-0.006c-0.3-0.031-2.368-0.065-2.629-0.044zM21.501 9.685c0.15 0.076 0.263 0.207 0.315 0.365l0.001 0.004c0.025 0.081 0.031 1.82 0.025 5.739l-0.009 5.624-0.992-1.52-0.995-1.52v-4.088c0-2.643 0.012-4.128 0.031-4.2 0.048-0.171 0.159-0.31 0.306-0.393l0.003-0.002c0.128-0.065 0.175-0.072 0.667-0.072 0.463 0 0.544 0.007 0.648 0.063z"></path>
</symbol>
<symbol id="node-js" viewBox="0 0 32 32">
<path fill="#393" style="fill: var(--color12, #393)" d="M15.997 32c-0.428 0-0.855-0.112-1.229-0.329l-3.915-2.316c-0.584-0.327-0.299-0.443-0.107-0.511 0.78-0.271 0.937-0.333 1.771-0.805 0.087-0.049 0.201-0.031 0.291 0.023l3.008 1.785c0.109 0.060 0.263 0.060 0.363 0l11.727-6.768c0.109-0.063 0.179-0.188 0.179-0.317v-13.533c0-0.132-0.071-0.256-0.183-0.323l-11.721-6.763c-0.108-0.063-0.252-0.063-0.361 0l-11.719 6.764c-0.113 0.065-0.185 0.193-0.185 0.321v13.533c0 0.129 0.072 0.252 0.185 0.313l3.212 1.856c1.743 0.872 2.811-0.155 2.811-1.187v-13.361c0-0.189 0.152-0.337 0.341-0.337h1.487c0.185 0 0.34 0.149 0.34 0.337v13.361c0 2.327-1.267 3.66-3.472 3.66-0.677 0-1.212 0-2.701-0.735l-3.077-1.769c-0.76-0.439-1.229-1.26-1.229-2.139v-13.533c0-0.879 0.471-1.7 1.229-2.137l11.727-6.776c0.743-0.42 1.728-0.42 2.464 0l11.725 6.776c0.76 0.439 1.232 1.259 1.232 2.137v13.533c0 0.879-0.472 1.697-1.232 2.139l-11.725 6.771c-0.373 0.217-0.799 0.329-1.233 0.329zM25.465 18.657c0-2.533-1.712-3.208-5.316-3.684-3.641-0.481-4.012-0.731-4.012-1.583 0-0.704 0.313-1.644 3.011-1.644 2.409 0 3.297 0.519 3.663 2.143 0.032 0.153 0.172 0.265 0.329 0.265h1.521c0.095 0 0.184-0.041 0.248-0.108 0.064-0.072 0.099-0.164 0.089-0.261-0.236-2.797-2.095-4.101-5.851-4.101-3.344 0-5.339 1.411-5.339 3.777 0 2.567 1.984 3.276 5.193 3.593 3.84 0.376 4.137 0.937 4.137 1.692 0 1.311-1.052 1.869-3.523 1.869-3.103 0-3.785-0.779-4.015-2.323-0.027-0.165-0.168-0.287-0.337-0.287h-1.516c-0.188 0-0.339 0.149-0.339 0.337 0 1.976 1.075 4.331 6.207 4.331 3.717 0.001 5.848-1.461 5.848-4.017z"></path>
</symbol>
<symbol id="postgresql" viewBox="0 0 32 32">
<path fill="#336791" style="fill: var(--color13, #336791)" d="M22.837 0c-1.312 0.010-2.575 0.206-3.769 0.562l0.096-0.024-0.084 0.027c-0.677-0.126-1.464-0.205-2.267-0.22l-0.013-0c-1.571-0.027-2.92 0.355-4.008 0.989-1.072-0.372-3.296-1.013-5.64-0.885-1.632 0.089-3.413 0.585-4.733 1.979-1.316 1.393-2.012 3.549-1.865 6.483 0.040 0.809 0.271 2.129 0.653 3.839s0.92 3.711 1.591 5.536c0.671 1.827 1.405 3.467 2.553 4.581 0.573 0.559 1.363 1.028 2.293 0.989 0.653-0.027 1.244-0.313 1.753-0.736 0.248 0.327 0.513 0.469 0.755 0.601 0.304 0.167 0.6 0.28 0.907 0.355 0.551 0.137 1.493 0.321 2.597 0.133 0.376-0.063 0.772-0.185 1.167-0.36 0.015 0.44 0.032 0.871 0.049 1.307 0.055 1.381 0.089 2.657 0.504 3.776 0.067 0.183 0.249 1.124 0.969 1.955 0.72 0.832 2.131 1.351 3.737 1.007 1.133-0.243 2.575-0.68 3.532-2.043 0.947-1.347 1.373-3.279 1.457-6.412 0.021-0.169 0.047-0.313 0.073-0.448l0.225 0.020h0.027c1.209 0.055 2.521-0.117 3.617-0.627 0.971-0.449 1.705-0.904 2.24-1.711 0.133-0.2 0.28-0.441 0.32-0.857s-0.199-1.067-0.595-1.367c-0.793-0.603-1.292-0.373-1.827-0.263-0.476 0.11-1.027 0.18-1.592 0.194l-0.010 0c1.541-2.596 2.647-5.353 3.277-7.793 0.373-1.44 0.583-2.768 0.6-3.929s-0.077-2.189-0.773-3.079c-2.175-2.779-5.232-3.547-7.597-3.573-0.073-0.001-0.147-0.003-0.22-0.005zM22.775 0.853c2.237-0.021 5.096 0.607 7.148 3.229 0.461 0.589 0.599 1.451 0.583 2.512-0.017 1.060-0.213 2.329-0.572 3.72-0.696 2.693-2.011 5.833-3.863 8.651 0.061 0.044 0.13 0.082 0.204 0.112l0.007 0.002c0.387 0.16 1.268 0.297 3.027-0.064 0.443-0.093 0.767-0.156 1.103 0.1 0.15 0.128 0.245 0.317 0.245 0.529 0 0.013-0 0.026-0.001 0.040l0-0.002c-0.019 0.17-0.081 0.323-0.175 0.451l0.002-0.003c-0.34 0.511-1.011 0.995-1.871 1.393-0.761 0.355-1.853 0.54-2.821 0.551-0.485 0.005-0.933-0.032-1.313-0.151l-0.024-0.009c-0.147 1.413-0.484 4.204-0.704 5.477-0.176 1.027-0.484 1.843-1.072 2.453-0.587 0.611-1.417 0.979-2.535 1.219-1.384 0.297-2.393-0.023-3.044-0.571-0.649-0.547-0.947-1.272-1.125-1.716-0.123-0.307-0.187-0.704-0.248-1.235s-0.107-1.18-0.137-1.912c-0.029-0.745-0.045-1.619-0.045-2.497 0-0.305 0.002-0.609 0.006-0.913l-0 0.046c-0.558 0.512-1.263 0.872-2.045 1.010l-0.024 0.004c-0.919 0.156-1.739 0.003-2.228-0.12-0.264-0.067-0.494-0.159-0.709-0.276l0.016 0.008c-0.227-0.121-0.443-0.259-0.587-0.529-0.057-0.103-0.091-0.227-0.091-0.358 0-0.053 0.006-0.105 0.016-0.155l-0.001 0.005c0.047-0.18 0.15-0.332 0.289-0.44l0.002-0.001c0.264-0.215 0.613-0.335 1.14-0.444 0.959-0.197 1.293-0.332 1.497-0.493 0.173-0.139 0.369-0.419 0.716-0.829-0.001-0.013-0.003-0.032-0.004-0.051l-0-0.004c-0.653-0.019-1.261-0.193-1.794-0.488l0.020 0.010c-0.2 0.211-1.221 1.291-2.467 2.789-0.524 0.627-1.103 0.987-1.713 1.012-0.611 0.027-1.163-0.281-1.632-0.736-0.937-0.911-1.685-2.477-2.337-4.248-0.651-1.771-1.18-3.743-1.556-5.423-0.377-1.68-0.6-3.035-0.632-3.688-0.14-2.776 0.509-4.647 1.623-5.827 1.115-1.18 2.643-1.627 4.132-1.712 2.673-0.153 5.212 0.779 5.725 0.979 0.989-0.672 2.264-1.091 3.856-1.064 0.801 0.012 1.572 0.117 2.31 0.305l-0.068-0.015 0.027-0.012c0.257-0.095 0.587-0.194 0.923-0.273l0.062-0.012c0.825-0.202 1.776-0.324 2.754-0.337l0.009-0zM22.977 1.747h-0.195c-0.811 0.012-1.594 0.104-2.349 0.27l0.077-0.014c1.661 0.736 2.916 1.869 3.8 3 0.585 0.739 1.091 1.583 1.481 2.487l0.028 0.073c0.147 0.352 0.245 0.649 0.301 0.88 0.028 0.116 0.047 0.213 0.053 0.315 0.003 0.051 0.005 0.103-0.016 0.192 0 0.004-0.007 0.013-0.008 0.017 0.040 1.168-0.249 1.96-0.284 3.075-0.027 0.808 0.18 1.757 0.231 2.793 0.048 0.973-0.069 2.043-0.701 3.092 0.053 0.064 0.101 0.128 0.152 0.192 1.672-2.633 2.877-5.547 3.52-8.031 0.344-1.337 0.527-2.549 0.543-3.509 0.013-0.96-0.165-1.656-0.393-1.947-1.789-2.288-4.211-2.871-6.24-2.885zM16.591 2.088c-1.576 0.004-2.707 0.48-3.564 1.193-0.884 0.737-1.477 1.747-1.867 2.78-0.463 1.227-0.621 2.413-0.684 3.219l0.017-0.011c0.476-0.267 1.101-0.533 1.771-0.688 0.669-0.153 1.391-0.201 2.044 0.052s1.193 0.849 1.389 1.753c0.939 4.343-0.292 5.957-0.745 7.176-0.144 0.351-0.295 0.801-0.42 1.261l-0.021 0.090c0.057-0.013 0.115-0.029 0.172-0.035 0.32-0.027 0.571 0.080 0.72 0.144 0.456 0.189 0.769 0.587 0.939 1.040 0.044 0.119 0.076 0.247 0.095 0.379 0.017 0.046 0.027 0.098 0.027 0.153 0 0.006-0 0.011-0 0.017l0-0.001c-0.022 0.666-0.034 1.45-0.034 2.236 0 0.966 0.019 1.928 0.056 2.885l-0.004-0.138c0.031 0.717 0.076 1.349 0.133 1.848 0.057 0.497 0.139 0.876 0.191 1.004 0.171 0.427 0.42 0.985 0.871 1.365 0.451 0.379 1.097 0.632 2.279 0.379 1.024-0.22 1.656-0.525 2.079-0.964 0.421-0.439 0.673-1.049 0.835-1.984 0.241-1.4 0.727-5.46 0.785-6.224-0.027-0.576 0.059-1.019 0.243-1.356 0.189-0.347 0.483-0.559 0.736-0.673 0.127-0.057 0.245-0.096 0.343-0.124-0.119-0.17-0.225-0.311-0.336-0.448l0.012 0.015c-0.35-0.422-0.648-0.905-0.873-1.427l-0.015-0.039c-0.136-0.279-0.25-0.49-0.371-0.697l0.028 0.052c-0.177-0.32-0.401-0.72-0.636-1.169-0.469-0.9-0.98-1.991-1.245-3.053-0.264-1.061-0.303-2.16 0.375-2.935 0.6-0.688 1.653-0.973 3.235-0.813-0.047-0.14-0.075-0.256-0.153-0.443-0.386-0.898-0.851-1.672-1.405-2.374l0.017 0.022c-1.34-1.713-3.509-3.412-6.861-3.467zM7.735 2.157c-0.169 0-0.339 0.005-0.507 0.015-1.347 0.077-2.62 0.468-3.531 1.433-0.912 0.965-1.512 2.548-1.381 5.168 0.025 0.496 0.241 1.885 0.612 3.536 0.369 1.651 0.893 3.593 1.523 5.309 0.631 1.716 1.395 3.209 2.12 3.916 0.365 0.353 0.683 0.496 0.971 0.484 0.289-0.013 0.637-0.18 1.063-0.691 0.836-1.006 1.625-1.895 2.44-2.759l-0.026 0.028c-0.986-0.86-1.606-2.118-1.606-3.521 0-0.24 0.018-0.475 0.053-0.705l-0.003 0.026c0.137-0.985 0.156-1.907 0.14-2.635-0.016-0.709-0.067-1.181-0.067-1.476-0-0.004-0-0.008-0-0.013s0-0.009 0-0.013v0.001-0.007l-0.001-0.008v-0.001c0-0.002 0-0.004 0-0.007 0-1.613 0.289-3.158 0.819-4.586l-0.030 0.091c0.373-0.992 0.929-2 1.763-2.816-0.819-0.269-2.272-0.68-3.845-0.757-0.15-0.008-0.327-0.013-0.505-0.013h-0.001zM24.265 9.2c-0.905 0.012-1.413 0.245-1.68 0.551-0.377 0.433-0.413 1.193-0.179 2.129 0.233 0.937 0.716 1.985 1.169 2.856 0.227 0.436 0.447 0.828 0.624 1.147 0.179 0.32 0.309 0.547 0.389 0.74 0.073 0.179 0.155 0.336 0.237 0.483 0.351-0.74 0.413-1.467 0.377-2.224-0.047-0.937-0.264-1.896-0.232-2.867 0.036-1.135 0.26-1.873 0.28-2.751-0.296-0.040-0.639-0.064-0.986-0.064h-0zM13.287 9.353c-0.293 0.003-0.576 0.039-0.847 0.104l0.026-0.005c-0.583 0.144-1.095 0.349-1.569 0.615l0.031-0.016c-0.177 0.096-0.33 0.197-0.472 0.309l0.007-0.005-0.029 0.027c0.008 0.195 0.047 0.667 0.063 1.361 0.016 0.76-0.003 1.729-0.149 2.779-0.319 2.28 1.336 4.168 3.28 4.171 0.113-0.468 0.3-0.943 0.487-1.443 0.541-1.459 1.607-2.523 0.709-6.675-0.147-0.68-0.437-0.955-0.837-1.109-0.195-0.071-0.42-0.112-0.655-0.112-0.015 0-0.030 0-0.046 0.001l0.002-0zM23.843 9.625h0.067c0.088 0.003 0.169 0.012 0.24 0.029 0.072 0.016 0.133 0.040 0.184 0.073s0.088 0.084 0.1 0.145l0 0.001-0.001 0.011c0 0.004 0 0.009 0 0.013 0 0.062-0.017 0.119-0.048 0.168l0.001-0.001c-0.041 0.076-0.090 0.142-0.147 0.2l0-0c-0.132 0.145-0.309 0.246-0.509 0.282l-0.005 0.001c-0.028 0.004-0.061 0.006-0.094 0.006-0.169 0-0.326-0.054-0.455-0.145l0.002 0.002c-0.066-0.045-0.123-0.097-0.172-0.156l-0.001-0.001c-0.042-0.046-0.071-0.103-0.084-0.167l-0-0.002c-0.001-0.006-0.001-0.013-0.001-0.020 0-0.058 0.022-0.11 0.057-0.15l-0 0c0.043-0.049 0.095-0.089 0.153-0.119l0.003-0.001c0.128-0.072 0.301-0.125 0.497-0.155 0.073-0.011 0.145-0.016 0.213-0.013zM13.416 9.849c0.071 0 0.145 0.007 0.221 0.017 0.204 0.028 0.385 0.083 0.524 0.163 0.069 0.037 0.128 0.084 0.177 0.141l0.001 0.001c0.046 0.052 0.074 0.121 0.074 0.196 0 0.011-0.001 0.022-0.002 0.032l0-0.001c-0.014 0.080-0.049 0.15-0.1 0.206l0-0c-0.055 0.067-0.117 0.124-0.188 0.171l-0.003 0.002c-0.137 0.098-0.308 0.157-0.493 0.157-0.037 0-0.073-0.002-0.108-0.007l0.004 0c-0.223-0.038-0.417-0.147-0.559-0.303l-0.001-0.001c-0.061-0.063-0.113-0.135-0.155-0.214l-0.002-0.005c-0.036-0.056-0.057-0.124-0.057-0.198 0-0.014 0.001-0.027 0.002-0.040l-0 0.002c0.020-0.144 0.139-0.219 0.255-0.26 0.109-0.038 0.235-0.060 0.366-0.060 0.016 0 0.031 0 0.047 0.001l-0.002-0zM25.496 19.64l-0.004 0.001c-0.196 0.071-0.357 0.1-0.493 0.16-0.139 0.055-0.25 0.155-0.317 0.282l-0.002 0.003c-0.084 0.153-0.156 0.425-0.135 0.888 0.057 0.039 0.122 0.071 0.193 0.092l0.005 0.001c0.228 0.069 0.611 0.115 1.037 0.108 0.851-0.009 1.897-0.208 2.453-0.467 0.481-0.226 0.895-0.5 1.263-0.825l-0.006 0.005h-0.001c-1.857 0.384-2.907 0.281-3.551 0.016-0.169-0.071-0.315-0.16-0.446-0.268l0.003 0.002zM14.788 19.765h-0.028c-0.071 0.007-0.173 0.031-0.372 0.251-0.464 0.52-0.627 0.847-1.009 1.152-0.383 0.304-0.88 0.467-1.873 0.671-0.315 0.064-0.495 0.135-0.615 0.192 0.039 0.032 0.035 0.040 0.093 0.071 0.145 0.080 0.332 0.151 0.483 0.189 0.427 0.107 1.128 0.231 1.86 0.107 0.732-0.125 1.493-0.476 2.143-1.387 0.112-0.157 0.124-0.389 0.032-0.639-0.093-0.249-0.297-0.464-0.441-0.524-0.079-0.040-0.171-0.069-0.268-0.082l-0.005-0z"></path>
</symbol>
<symbol id="postman" viewBox="0 0 32 32">
<path fill="#ff6c37" style="fill: var(--color14, #ff6c37)" d="M18.036 0.132c-8.763-1.124-16.78 5.068-17.904 13.832-1.124 8.763 5.067 16.779 13.831 17.904 8.764 1.124 16.783-5.068 17.904-13.832 1.125-8.763-5.065-16.779-13.831-17.904zM21.331 10.112c-0.309 0.004-0.588 0.131-0.791 0.333v0l-5.937 5.937-1.267-1.267c5.852-5.835 6.907-5.891 7.995-5.004zM14.847 16.593l5.92-5.92c0.151-0.158 0.363-0.256 0.598-0.256 0.457 0 0.827 0.37 0.827 0.827 0 0.254-0.114 0.481-0.294 0.633l-0.001 0.001-6.265 5.5zM15.287 17.519l-1.467 0.317c-0.005 0.001-0.011 0.002-0.018 0.002-0.031 0-0.058-0.018-0.072-0.044l-0-0c-0.007-0.012-0.011-0.025-0.011-0.040 0-0.022 0.009-0.043 0.024-0.057v0l0.86-0.86zM11.549 16.907l1.563-1.563 1.172 1.171-2.639 0.568c-0.007 0.002-0.016 0.003-0.025 0.003-0.039 0-0.072-0.022-0.088-0.055l-0-0.001c-0.010-0.015-0.015-0.033-0.015-0.052 0-0.029 0.013-0.054 0.032-0.072l0-0zM6.688 24.984c-0.052-0.005-0.092-0.048-0.092-0.101 0-0.003 0-0.007 0-0.010l-0 0c0.003-0.024 0.013-0.045 0.029-0.061v0h0.003l1.261-1.261 1.629 1.629zM9.921 23.309c-0.098 0.052-0.164 0.153-0.164 0.27 0 0.025 0.003 0.050 0.009 0.073l-0-0.002 0.271 1.153c0.003 0.012 0.005 0.026 0.005 0.040 0 0.092-0.075 0.167-0.167 0.167-0.047 0-0.089-0.019-0.119-0.050l-0-0h-0.004l-1.637-1.639 5.016-5.011 2.427-0.524 1.165 1.165c-1.673 1.469-3.961 2.935-6.8 4.357zM16.96 18.739h-0.003l-1.119-1.119 6.265-5.5c0.058-0.052 0.11-0.107 0.157-0.167l0.002-0.003c-0.197 1.793-2.705 4.327-5.303 6.788zM21.836 10.125l-0.004-0.003c-0.437-0.439-0.707-1.045-0.707-1.714 0-1.342 1.088-2.429 2.429-2.429 0.594 0 1.138 0.213 1.561 0.567l-0.004-0.003-2.147 2.151c-0.029 0.029-0.047 0.069-0.047 0.113s0.018 0.084 0.047 0.113v0l1.663 1.663c-0.314 0.159-0.685 0.253-1.077 0.253-0.669 0-1.275-0.271-1.713-0.71v0zM25.273 10.125c-0.107 0.106-0.226 0.202-0.353 0.285l-0.009 0.005h-0.001l-1.609-1.609 2.044-2.044c0.881 0.96 0.849 2.443-0.072 3.363zM25.14 8.067c-0.048 0.035-0.079 0.091-0.079 0.154 0 0.020 0.003 0.039 0.008 0.056l-0-0.001c0.036 0.072 0.057 0.156 0.057 0.246 0 0.135-0.048 0.259-0.129 0.355l0.001-0.001c-0.025 0.032-0.040 0.072-0.040 0.116 0 0.059 0.028 0.112 0.071 0.146l0 0c0.031 0.024 0.069 0.039 0.112 0.040h0c0.057-0.001 0.107-0.026 0.141-0.066l0-0c0.133-0.159 0.213-0.365 0.213-0.589 0-0.15-0.036-0.292-0.1-0.417l0.002 0.005c-0.034-0.048-0.089-0.079-0.151-0.079-0.040 0-0.078 0.013-0.108 0.035l0.001-0z"></path>
</symbol>
<symbol id="python" viewBox="0 0 32 32">
<path fill="#3776ab" style="fill: var(--color15, #3776ab)" d="M19.080 0.24l1.2 0.267 0.973 0.347 0.787 0.4 0.6 0.427 0.453 0.453 0.333 0.453 0.213 0.44 0.133 0.4 0.053 0.347 0.027 0.267-0.013 0.173v7.12l-0.067 0.84-0.173 0.733-0.28 0.613-0.347 0.507-0.4 0.413-0.44 0.333-0.467 0.253-0.467 0.187-0.44 0.133-0.4 0.093-0.347 0.053-0.28 0.027h-7.96l-0.92 0.067-0.787 0.187-0.667 0.293-0.547 0.36-0.44 0.427-0.36 0.467-0.267 0.48-0.2 0.493-0.133 0.467-0.093 0.427-0.053 0.36-0.027 0.28v4.080h-2.973l-0.28-0.040-0.373-0.093-0.427-0.16-0.467-0.24-0.48-0.347-0.48-0.48-0.467-0.613-0.427-0.787-0.373-0.973-0.28-1.173-0.187-1.4-0.067-1.64 0.080-1.627 0.213-1.387 0.32-1.16 0.427-0.947 0.48-0.76 0.533-0.587 0.56-0.44 0.56-0.32 0.533-0.213 0.48-0.133 0.427-0.067 0.32-0.013h0.213l0.080 0.013h10.88v-1.107h-7.787l-0.013-3.667-0.027-0.493 0.067-0.453 0.147-0.413 0.227-0.373 0.333-0.347 0.413-0.307 0.507-0.267 0.587-0.24 0.68-0.2 0.773-0.16 0.853-0.133 0.947-0.080 1.027-0.053 1.12-0.027 1.693 0.067zM10.68 2.88l-0.307 0.44-0.107 0.547 0.107 0.547 0.307 0.453 0.44 0.293 0.547 0.12 0.547-0.12 0.44-0.293 0.307-0.453 0.107-0.547-0.107-0.547-0.307-0.44-0.44-0.293-0.547-0.12-0.547 0.12zM28.133 8.147l0.373 0.080 0.427 0.16 0.467 0.24 0.48 0.36 0.48 0.467 0.467 0.627 0.427 0.787 0.373 0.973 0.28 1.173 0.187 1.387 0.067 1.64-0.080 1.64-0.213 1.387-0.32 1.147-0.427 0.947-0.48 0.76-0.533 0.6-0.56 0.44-0.56 0.32-0.533 0.213-0.48 0.12-0.427 0.067-0.32 0.027-0.213-0.013h-10.96v1.093h7.787l0.013 3.68 0.027 0.48-0.067 0.453-0.147 0.413-0.227 0.387-0.333 0.333-0.413 0.32-0.507 0.267-0.587 0.227-0.68 0.2-0.773 0.173-0.853 0.12-0.947 0.093-1.027 0.053-1.12 0.013-1.693-0.053-1.427-0.187-1.2-0.267-0.973-0.333-0.787-0.4-0.6-0.44-0.453-0.453-0.333-0.453-0.213-0.44-0.133-0.4-0.053-0.333-0.027-0.267 0.013-0.173v-7.12l0.067-0.853 0.173-0.72 0.28-0.613 0.347-0.507 0.4-0.427 0.44-0.32 0.467-0.267 0.467-0.187 0.44-0.133 0.4-0.080 0.347-0.053 0.28-0.027 0.173-0.013h7.787l0.92-0.067 0.787-0.187 0.667-0.28 0.547-0.373 0.44-0.427 0.36-0.467 0.267-0.48 0.2-0.48 0.133-0.467 0.093-0.427 0.053-0.373 0.027-0.28v-4.080h2.787l0.187 0.013zM19.507 27.147l-0.307 0.44-0.107 0.547 0.107 0.547 0.307 0.44 0.44 0.307 0.547 0.107 0.547-0.107 0.44-0.307 0.307-0.44 0.107-0.547-0.107-0.547-0.307-0.44-0.44-0.307-0.547-0.107-0.547 0.107z"></path>
</symbol>
<symbol id="react" viewBox="0 0 32 32">
<path fill="#61dafb" style="fill: var(--color16, #61dafb)" d="M16 13.148c-1.575 0-2.852 1.277-2.852 2.852s1.277 2.852 2.852 2.852v0c1.575 0 2.852-1.277 2.852-2.852s-1.277-2.852-2.852-2.852v0zM8.011 21.673l-0.629-0.16c-4.691-1.185-7.381-3.197-7.381-5.519s2.691-4.333 7.381-5.519l0.629-0.159 0.177 0.624c0.545 1.86 1.163 3.443 1.899 4.957l-0.082-0.186 0.135 0.284-0.135 0.284c-0.656 1.329-1.275 2.912-1.761 4.551l-0.056 0.22zM7.089 11.933c-3.565 1.001-5.753 2.533-5.753 4.061 0 1.527 2.188 3.059 5.753 4.061 0.512-1.62 1.046-2.965 1.662-4.263l-0.086 0.202c-0.531-1.098-1.066-2.443-1.511-3.828l-0.065-0.234zM23.989 21.673l-0.177-0.625c-0.544-1.859-1.162-3.441-1.9-4.954l0.081 0.184-0.135-0.284 0.135-0.284c0.656-1.329 1.275-2.911 1.762-4.55l0.056-0.221 0.177-0.624 0.631 0.159c4.689 1.185 7.38 3.197 7.38 5.52s-2.691 4.333-7.38 5.519zM23.335 15.995c0.64 1.385 1.169 2.747 1.576 4.061 3.567-1.003 5.753-2.535 5.753-4.061 0-1.528-2.188-3.059-5.753-4.061-0.511 1.619-1.045 2.963-1.662 4.262l0.086-0.2zM7.080 11.927l-0.177-0.623c-1.319-4.648-0.919-7.979 1.097-9.141 1.977-1.141 5.152 0.207 8.479 3.621l0.453 0.465-0.453 0.465c-1.146 1.19-2.207 2.482-3.162 3.853l-0.068 0.103-0.18 0.257-0.313 0.027c-1.875 0.151-3.596 0.439-5.264 0.86l0.218-0.047zM9.608 3.087c-0.357 0-0.673 0.077-0.94 0.231-1.325 0.764-1.56 3.42-0.647 7.004 1.21-0.285 2.681-0.521 4.18-0.658l0.131-0.010c0.894-1.264 1.792-2.37 2.756-3.414l-0.020 0.022c-2.080-2.025-4.049-3.175-5.46-3.175zM22.393 30.236c-0.001 0-0.001 0 0 0-1.9 0-4.34-1.431-6.872-4.031l-0.453-0.465 0.453-0.465c1.146-1.19 2.206-2.482 3.16-3.854l0.068-0.103 0.18-0.257 0.312-0.027c1.875-0.15 3.597-0.438 5.267-0.858l-0.218 0.046 0.629-0.159 0.179 0.624c1.316 4.645 0.917 7.977-1.099 9.139-0.449 0.259-0.988 0.411-1.562 0.411-0.016 0-0.031-0-0.047-0l0.002 0zM16.932 25.728c2.080 2.025 4.049 3.175 5.46 3.175h0.001c0.356 0 0.673-0.077 0.939-0.231 1.325-0.764 1.561-3.421 0.647-7.005-1.212 0.286-2.682 0.522-4.182 0.658l-0.13 0.010c-0.893 1.265-1.791 2.371-2.755 3.416l0.020-0.022zM24.92 11.927l-0.629-0.159c-1.453-0.376-3.175-0.664-4.939-0.806l-0.111-0.007-0.312-0.027-0.18-0.257c-1.021-1.474-2.082-2.766-3.237-3.966l0.009 0.010-0.453-0.465 0.453-0.465c3.325-3.413 6.499-4.761 8.479-3.621 2.016 1.163 2.416 4.493 1.099 9.14zM19.667 9.653c1.523 0.139 2.969 0.364 4.312 0.668 0.915-3.584 0.679-6.24-0.647-7.004-1.317-0.761-3.793 0.405-6.4 2.944 0.943 1.022 1.841 2.128 2.666 3.289l0.069 0.103zM9.608 30.236c-0.014 0-0.030 0-0.046 0-0.574 0-1.113-0.152-1.577-0.419l0.015 0.008c-2.016-1.161-2.416-4.492-1.097-9.139l0.176-0.624 0.629 0.159c1.54 0.388 3.239 0.661 5.047 0.812l0.313 0.027 0.179 0.257c1.022 1.475 2.083 2.767 3.239 3.967l-0.010-0.010 0.453 0.465-0.453 0.465c-2.531 2.6-4.971 4.031-6.868 4.031zM8.021 21.667c-0.915 3.584-0.679 6.241 0.647 7.005 1.316 0.751 3.791-0.407 6.4-2.944-0.943-1.022-1.841-2.129-2.667-3.29l-0.069-0.103c-1.629-0.146-3.099-0.382-4.534-0.711l0.224 0.043zM16 22.504c-1.097 0-2.225-0.048-3.355-0.141l-0.313-0.027-0.18-0.257c-0.544-0.768-1.139-1.691-1.697-2.639l-0.103-0.19c-0.452-0.758-0.971-1.732-1.45-2.728l-0.105-0.243-0.133-0.284 0.133-0.284c0.584-1.239 1.102-2.212 1.658-3.161l-0.103 0.191c0.552-0.955 1.159-1.907 1.8-2.829l0.18-0.257 0.313-0.027c1.005-0.090 2.174-0.142 3.355-0.142s2.35 0.052 3.505 0.153l-0.15-0.011 0.312 0.027 0.179 0.257c1.177 1.666 2.294 3.567 3.252 5.56l0.104 0.24 0.135 0.284-0.135 0.284c-1.058 2.232-2.176 4.133-3.439 5.925l0.083-0.125-0.179 0.257-0.312 0.027c-1.129 0.093-2.259 0.141-3.356 0.141zM13.071 21.059c1.973 0.148 3.885 0.148 5.86 0 1.004-1.445 1.978-3.104 2.827-4.836l0.101-0.228c-0.947-1.958-1.922-3.617-3.012-5.19l0.083 0.126c-0.877-0.071-1.898-0.111-2.929-0.111s-2.052 0.040-3.063 0.119l0.134-0.008c-1.008 1.447-1.983 3.106-2.83 4.84l-0.099 0.224c0.951 1.96 1.926 3.619 3.014 5.193l-0.085-0.13z"></path>
</symbol>
<symbol id="spring" viewBox="0 0 32 32">
<path fill="#6db33f" style="fill: var(--color17, #6db33f)" d="M29.096 1.664c-0.451 1.075-1.021 2.093-1.708 3.029-2.905-2.9-6.916-4.693-11.346-4.693-0.001 0-0.002 0-0.003 0h0c-8.799 0-16.040 7.24-16.040 16.041 0 4.391 1.8 8.593 4.983 11.623l0.592 0.524c2.771 2.345 6.386 3.772 10.333 3.773h0c8.367 0 15.4-6.548 15.996-14.896 0.437-4.087-0.763-9.255-2.808-15.401zM7.263 27.756c-0.259 0.32-0.653 0.507-1.067 0.507-0.756-0.004-1.368-0.617-1.371-1.373v-0c0-0.752 0.62-1.373 1.371-1.373 0.758 0.002 1.372 0.618 1.372 1.376 0 0.328-0.115 0.63-0.307 0.867l0.002-0.003zM29.029 22.953c-3.959 5.272-12.413 3.496-17.833 3.749 0 0-0.963 0.059-1.929 0.216 0 0 0.363-0.153 0.833-0.333 3.804-1.323 5.604-1.58 7.916-2.767 4.355-2.213 8.659-7.057 9.555-12.096-1.659 4.848-6.683 9.013-11.263 10.707-3.137 1.156-8.804 2.28-8.804 2.28l-0.229-0.12c-3.859-1.877-3.975-10.229 3.037-12.925 3.071-1.181 6.009-0.533 9.325-1.323 3.541-0.84 7.637-3.496 9.304-6.959 1.867 5.539 4.113 14.211 0.088 19.571z"></path>
</symbol>
<symbol id="telegram" viewBox="0 0 32 32">
<path fill="#2ca5e0" style="fill: var(--color18, #2ca5e0)" d="M31.88 5.053l-4.813 22.733c-0.333 1.613-1.307 2-2.667 1.253l-7.333-5.427-3.547 3.427c-0.4 0.4-0.733 0.747-1.467 0.747-0.96 0-0.8-0.36-1.12-1.267l-2.533-8.253-7.267-2.267c-1.573-0.467-1.587-1.547 0.347-2.333l28.347-10.933c1.293-0.573 2.533 0.32 2.053 2.32z"></path>
</symbol>
<symbol id="typescript" viewBox="0 0 32 32">
<path fill="#007acc" style="fill: var(--color19, #007acc)" d="M0 16v16h32v-32h-32zM25.788 14.725c0.813 0.203 1.432 0.564 2.001 1.153 0.295 0.315 0.732 0.888 0.767 1.027 0.011 0.040-1.381 0.973-2.224 1.497-0.031 0.020-0.153-0.112-0.289-0.315-0.413-0.6-0.844-0.859-1.504-0.904-0.971-0.067-1.595 0.441-1.589 1.289-0.001 0.015-0.001 0.032-0.001 0.050 0 0.201 0.051 0.391 0.14 0.557l-0.003-0.006c0.213 0.441 0.611 0.707 1.853 1.244 2.292 0.987 3.272 1.636 3.881 2.56 0.68 1.031 0.833 2.677 0.371 3.901-0.507 1.331-1.767 2.235-3.54 2.533-0.548 0.097-1.848 0.083-2.437-0.024-1.285-0.229-2.504-0.864-3.256-1.697-0.295-0.324-0.869-1.173-0.833-1.233 0.015-0.021 0.147-0.103 0.293-0.188 0.144-0.081 0.681-0.392 1.189-0.687l0.92-0.533 0.193 0.285c0.269 0.411 0.857 0.975 1.213 1.163 1.021 0.539 2.423 0.463 3.113-0.157 0.257-0.217 0.419-0.54 0.419-0.9 0-0.021-0.001-0.042-0.002-0.062l0 0.003c0-0.371-0.047-0.533-0.24-0.813-0.248-0.355-0.756-0.653-2.199-1.28-1.651-0.711-2.361-1.152-3.012-1.853-0.392-0.445-0.694-0.981-0.871-1.57l-0.008-0.030c-0.121-0.452-0.152-1.585-0.056-2.041 0.34-1.596 1.544-2.707 3.281-3.037 0.564-0.107 1.875-0.067 2.428 0.071zM18.276 16.061l0.011 1.311h-4.167v11.835h-2.947v-11.835h-4.163v-1.285c0-0.712 0.015-1.307 0.035-1.32 0.016-0.021 2.551-0.032 5.623-0.027l5.593 0.016z"></path>
</symbol>
<symbol id="whatsapp" viewBox="0 0 32 32">
<path fill="#25d366" style="fill: var(--color20, #25d366)" d="M23.331 19.176c-0.401-0.2-2.356-1.156-2.72-1.288-0.364-0.135-0.631-0.2-0.897 0.2-0.263 0.393-1.028 1.285-1.259 1.549-0.233 0.26-0.465 0.28-0.861 0.1-0.4-0.2-1.684-0.62-3.204-1.98-1.184-1.060-1.979-2.36-2.213-2.76-0.232-0.4-0.025-0.62 0.173-0.82 0.181-0.18 0.401-0.46 0.601-0.697 0.195-0.241 0.259-0.401 0.396-0.661 0.133-0.28 0.065-0.5-0.033-0.699-0.1-0.2-0.896-2.16-1.229-2.941-0.32-0.779-0.649-0.68-0.896-0.68-0.229-0.020-0.495-0.020-0.761-0.020s-0.697 0.099-1.063 0.479c-0.364 0.4-1.393 1.36-1.393 3.3s1.427 3.82 1.625 4.1c0.199 0.26 2.807 4.26 6.8 5.98 0.952 0.4 1.693 0.64 2.272 0.839 0.952 0.303 1.82 0.26 2.507 0.161 0.765-0.121 2.356-0.961 2.688-1.901 0.34-0.94 0.34-1.72 0.24-1.9-0.099-0.18-0.36-0.28-0.76-0.46zM16.081 29h-0.021c-2.36 0-4.699-0.64-6.74-1.84l-0.48-0.285-5 1.3 1.34-4.86-0.319-0.5c-1.32-2.101-2.021-4.521-2.021-7.013 0-7.26 5.94-13.18 13.256-13.18 3.539 0 6.86 1.38 9.361 3.88 2.5 2.479 3.879 5.8 3.879 9.32-0.005 7.259-5.947 13.18-13.247 13.18zM27.36 4.599c-3.040-2.939-7.040-4.599-11.3-4.599-8.776 0-15.921 7.112-15.925 15.857 0 2.795 0.732 5.52 2.127 7.927l-2.261 8.216 8.447-2.203c2.328 1.257 4.947 1.925 7.613 1.929h0.008c8.78 0 15.928-7.115 15.932-15.861 0-4.235-1.653-8.22-4.66-11.215z"></path>
</symbol>
<symbol id="nestjs" viewBox="0 0 32 32">
<path d="M18.841 0.063c-0.231 0-0.445 0.049-0.644 0.116 0.421 0.28 0.653 0.653 0.768 1.075 0.009 0.057 0.025 0.099 0.033 0.156 0.009 0.044 0.016 0.095 0.017 0.148l0 0.002c0.032 0.727-0.191 0.819-0.347 1.248-0.24 0.553-0.173 1.148 0.115 1.627 0.029 0.070 0.062 0.13 0.101 0.186l-0.002-0.003c-0.313-2.091 1.431-2.404 1.752-3.057 0.025-0.571-0.445-0.951-0.817-1.215-0.276-0.176-0.612-0.28-0.972-0.28-0.001 0-0.003 0-0.004 0h0zM21.469 0.533c-0.032 0.191-0.008 0.141-0.016 0.24-0.008 0.067-0.008 0.149-0.016 0.215-0.017 0.067-0.033 0.133-0.059 0.199-0.016 0.067-0.040 0.133-0.067 0.199l-0.089 0.189c-0.027 0.033-0.041 0.067-0.067 0.1l-0.049 0.073c-0.045 0.064-0.086 0.118-0.128 0.171l0.004-0.005c-0.049 0.051-0.091 0.108-0.149 0.149v0.008c-0.049 0.041-0.099 0.091-0.157 0.133-0.173 0.132-0.371 0.231-0.553 0.355-0.057 0.040-0.116 0.075-0.165 0.124-0.058 0.041-0.11 0.085-0.157 0.132l0-0c-0.057 0.049-0.099 0.099-0.148 0.157-0.041 0.049-0.091 0.107-0.124 0.165-0.037 0.049-0.075 0.106-0.111 0.164l-0.005 0.009c-0.033 0.067-0.057 0.124-0.091 0.189-0.025 0.067-0.049 0.124-0.067 0.191-0.017 0.049-0.037 0.118-0.054 0.188l-0.004 0.018c-0.008 0.033-0.008 0.075-0.016 0.107-0.009 0.033-0.009 0.067-0.017 0.1 0 0.067-0.008 0.14-0.008 0.207 0 0.049 0 0.099 0.008 0.148 0 0.067 0.008 0.133 0.025 0.207 0.008 0.067 0.024 0.133 0.040 0.2 0.027 0.065 0.043 0.131 0.067 0.197 0.017 0.040 0.041 0.083 0.059 0.116l-1.901-0.736c-0.321-0.091-0.636-0.173-0.959-0.248l-0.52-0.124c-0.496-0.099-1-0.173-1.504-0.223-0.017 0-0.025-0.008-0.041-0.008-0.442-0.047-0.954-0.074-1.473-0.074-0.384 0-0.764 0.015-1.14 0.043l0.050-0.003c-0.504 0.033-1.008 0.099-1.512 0.181-0.482 0.082-0.859 0.163-1.23 0.256l0.114-0.024-0.372 0.099c-0.123 0.049-0.24 0.107-0.355 0.157l-0.273 0.124c-0.016 0.008-0.032 0.008-0.040 0.016-0.084 0.041-0.157 0.075-0.232 0.116-0.129 0.057-0.232 0.11-0.333 0.167l0.018-0.009c-0.057 0.024-0.115 0.057-0.165 0.083-0.020 0.013-0.044 0.026-0.069 0.038l-0.004 0.002c-0.075 0.043-0.149 0.084-0.216 0.125-0.077 0.043-0.142 0.084-0.204 0.128l0.006-0.004c-0.059 0.040-0.116 0.073-0.165 0.115-0.008 0.009-0.017 0.009-0.025 0.017-0.049 0.033-0.107 0.075-0.157 0.116l-0.016 0.016-0.124 0.099c-0.016 0.009-0.033 0.025-0.049 0.033-0.041 0.033-0.083 0.075-0.124 0.107-0.008 0.017-0.025 0.027-0.033 0.033-0.049 0.051-0.099 0.092-0.148 0.141-0.009 0-0.009 0.008-0.017 0.016-0.053 0.046-0.101 0.092-0.147 0.141l-0.001 0.001c-0.009 0.008-0.009 0.016-0.017 0.016-0.043 0.042-0.083 0.085-0.122 0.131l-0.002 0.003c-0.016 0.016-0.040 0.032-0.057 0.048-0.046 0.054-0.092 0.102-0.14 0.149l-0.001 0.001c-0.008 0.016-0.024 0.025-0.032 0.040-0.067 0.067-0.124 0.133-0.191 0.2l-0.024 0.024c-0.133 0.141-0.273 0.281-0.423 0.405-0.148 0.133-0.305 0.256-0.463 0.364-0.293 0.212-0.628 0.4-0.983 0.549l-0.033 0.012c-0.173 0.075-0.356 0.141-0.537 0.199-0.347 0.075-0.703 0.215-1.008 0.24-0.067 0-0.14 0.016-0.207 0.024l-0.207 0.049-0.199 0.075c-0.067 0.025-0.132 0.059-0.197 0.091-0.059 0.041-0.124 0.075-0.183 0.116-0.061 0.045-0.115 0.091-0.165 0.141l-0 0c-0.057 0.040-0.116 0.099-0.165 0.148-0.049 0.057-0.099 0.107-0.14 0.165-0.041 0.067-0.091 0.124-0.124 0.191-0.040 0.055-0.078 0.116-0.112 0.181l-0.004 0.008c-0.033 0.075-0.067 0.141-0.091 0.215-0.025 0.067-0.049 0.141-0.075 0.215-0.016 0.067-0.033 0.133-0.040 0.2 0 0.007-0.009 0.016-0.009 0.024-0.016 0.075-0.016 0.173-0.025 0.223-0.008 0.059-0.016 0.107-0.016 0.165-0 0.003-0 0.006-0 0.009 0 0.148 0.037 0.287 0.101 0.409l-0.002-0.005v0.008c0.025 0.049 0.059 0.1 0.092 0.149 0.032 0.049 0.067 0.099 0.107 0.148 0.041 0.041 0.091 0.092 0.141 0.133 0.047 0.047 0.098 0.091 0.152 0.13l0.004 0.002c0.199 0.173 0.248 0.231 0.504 0.363 0.041 0.025 0.083 0.041 0.133 0.067 0.008 0 0.016 0.008 0.024 0.008 0 0.017 0 0.025 0.008 0.041 0.021 0.149 0.059 0.282 0.111 0.409l-0.004-0.011c0.027 0.049 0.043 0.099 0.067 0.148 0.009 0.017 0.017 0.033 0.027 0.041 0.032 0.067 0.065 0.124 0.097 0.183l0.124 0.173c0.041 0.049 0.092 0.107 0.141 0.157 0.049 0.049 0.099 0.091 0.157 0.14 0 0 0.008 0.008 0.016 0.008 0.049 0.041 0.099 0.083 0.149 0.116 0.052 0.037 0.111 0.073 0.174 0.103l0.008 0.003c0.057 0.033 0.124 0.067 0.189 0.092 0.046 0.022 0.102 0.041 0.159 0.056l0.007 0.001c0.009 0.008 0.017 0.008 0.033 0.016 0.033 0.009 0.075 0.017 0.107 0.025-0.024 0.447-0.032 0.867 0.035 1.016 0.073 0.165 0.437-0.339 0.8-0.917-0.048 0.571-0.081 1.24 0 1.439 0.092 0.207 0.587-0.439 1.017-1.149 5.86-1.355 11.207 2.693 11.768 8.413-0.107-0.893-1.207-1.388-1.711-1.264-0.248 0.611-0.669 1.396-1.347 1.884 0.057-0.547 0.033-1.107-0.083-1.653-0.199 0.8-0.554 1.499-1.033 2.093l0.008-0.010c-0.784 0.057-1.569-0.323-1.983-0.893-0.033-0.024-0.041-0.073-0.067-0.107-0.024-0.057-0.049-0.116-0.067-0.173-0.022-0.050-0.040-0.109-0.049-0.17l-0-0.004c-0.008-0.059-0.008-0.116-0.008-0.183v-0.124c0.011-0.068 0.026-0.126 0.044-0.183l-0.003 0.009c0.017-0.057 0.033-0.115 0.059-0.173 0.032-0.057 0.057-0.116 0.099-0.173 0.14-0.397 0.14-0.72-0.116-0.909-0.045-0.030-0.097-0.058-0.151-0.080l-0.006-0.002c-0.032-0.008-0.073-0.024-0.107-0.033l-0.067-0.024c-0.048-0.016-0.107-0.031-0.167-0.040l-0.006-0.001c-0.052-0.016-0.111-0.025-0.173-0.025h-0c-0.054-0.009-0.116-0.015-0.18-0.016l-0.001-0c-0.041 0-0.083 0.008-0.124 0.008-0.001 0-0.002 0-0.004 0-0.064 0-0.125 0.009-0.184 0.026l0.005-0.001c-0.057 0.008-0.115 0.016-0.173 0.032-0.069 0.019-0.127 0.039-0.183 0.062l0.009-0.003c-0.057 0.024-0.107 0.049-0.165 0.075-0.049 0.024-0.099 0.057-0.157 0.083-1.925 1.256-0.776 4.197 0.537 5.049-0.496 0.091-1 0.197-1.14 0.305l-0.017 0.016c0.356 0.215 0.728 0.397 1.116 0.555 0.529 0.173 1.091 0.329 1.339 0.396v0.008c0.483 0.104 1.039 0.163 1.608 0.163 0.167 0 0.333-0.005 0.497-0.015l-0.023 0.001c3.661-0.256 6.661-3.041 7.207-6.711l0.049 0.215c0.025 0.149 0.057 0.307 0.075 0.463v0.008c0.016 0.075 0.024 0.149 0.033 0.216v0.032c0.008 0.075 0.016 0.149 0.016 0.216 0.008 0.091 0.016 0.181 0.016 0.272v0.133c0 0.040 0.009 0.089 0.009 0.131 0 0.051-0.009 0.1-0.009 0.149v0.116c0 0.057-0.008 0.107-0.008 0.165 0 0.033 0 0.067-0.008 0.107 0 0.059-0.008 0.116-0.008 0.183-0.008 0.024-0.008 0.049-0.008 0.073l-0.027 0.191c0 0.025 0 0.049-0.007 0.075-0.009 0.083-0.025 0.157-0.033 0.24v0.016l-0.049 0.232v0.024l-0.049 0.223c0 0.009-0.009 0.027-0.009 0.033-0.018 0.091-0.038 0.166-0.062 0.24l0.004-0.016v0.024c-0.025 0.083-0.049 0.157-0.067 0.232-0.008 0.008-0.008 0.016-0.008 0.016l-0.075 0.248c-0.032 0.083-0.057 0.157-0.091 0.24s-0.057 0.165-0.091 0.24c-0.033 0.083-0.067 0.156-0.099 0.24h-0.009c-0.032 0.073-0.067 0.156-0.107 0.231-0.008 0.022-0.017 0.041-0.026 0.059l0.001-0.002c-0.008 0.008-0.008 0.017-0.016 0.025-0.565 1.116-1.349 2.045-2.303 2.762l-0.020 0.014c-0.067 0.041-0.132 0.092-0.199 0.141-0.016 0.016-0.040 0.024-0.057 0.040-0.049 0.036-0.108 0.078-0.168 0.117l-0.013 0.008 0.024 0.049h0.009l0.347-0.049h0.008c0.215-0.033 0.429-0.075 0.644-0.116 0.059-0.008 0.124-0.025 0.183-0.041l0.116-0.025c0.057-0.008 0.115-0.024 0.173-0.032 0.049-0.017 0.099-0.027 0.148-0.041 0.827-0.2 1.628-0.472 2.397-0.793-1.327 1.793-3.053 3.217-5.052 4.155l-0.081 0.034c0.952-0.067 1.901-0.223 2.819-0.488 3.375-1.014 6.118-3.246 7.775-6.174l0.034-0.066c-0.367 2.020-1.146 3.811-2.25 5.355l0.027-0.040c0.83-0.552 1.552-1.156 2.203-1.831l0.004-0.004c1.791-1.868 3.036-4.272 3.47-6.949l0.010-0.075c0.28 1.307 0.363 2.653 0.24 3.983 5.965-8.321 0.495-16.949-1.795-19.221-0.008-0.017-0.016-0.025-0.016-0.041-0.008 0.008-0.008 0.008-0.008 0.016 0-0.008 0-0.008-0.009-0.016 0 0.099-0.008 0.197-0.016 0.297-0.030 0.245-0.059 0.434-0.093 0.621l0.010-0.068c-0.040 0.181-0.091 0.364-0.14 0.547-0.059 0.173-0.124 0.355-0.2 0.528-0.094 0.214-0.177 0.379-0.265 0.541l0.019-0.037c-0.2 0.348-0.41 0.648-0.644 0.927l0.008-0.010c-0.124 0.148-0.256 0.28-0.389 0.413-0.072 0.066-0.15 0.134-0.23 0.199l-0.010 0.008-0.189 0.165c-0.134 0.107-0.285 0.213-0.443 0.31l-0.020 0.011c-0.132 0.087-0.292 0.181-0.456 0.266l-0.032 0.015c-0.173 0.083-0.347 0.157-0.52 0.232-0.31 0.123-0.677 0.226-1.056 0.292l-0.035 0.005c-0.191 0.033-0.38 0.049-0.563 0.067-0.115 0.009-0.253 0.015-0.392 0.016l-0.004 0c-0.202-0.003-0.397-0.015-0.59-0.036l0.027 0.002c-0.21-0.017-0.402-0.046-0.589-0.088l0.028 0.005c-0.216-0.040-0.402-0.088-0.583-0.149l0.029 0.009h-0.009c0.183-0.017 0.364-0.033 0.547-0.067 0.415-0.073 0.781-0.176 1.132-0.311l-0.041 0.014c0.181-0.067 0.355-0.149 0.52-0.232 0.173-0.083 0.331-0.173 0.496-0.272 0.157-0.107 0.313-0.215 0.463-0.331s0.289-0.24 0.421-0.372c0.14-0.124 0.264-0.264 0.388-0.405 0.124-0.148 0.24-0.297 0.347-0.445 0.017-0.025 0.035-0.059 0.051-0.083 0.083-0.133 0.165-0.265 0.24-0.397 0.167-0.294 0.317-0.636 0.434-0.993l0.011-0.040c0.059-0.173 0.1-0.355 0.141-0.537 0.033-0.189 0.067-0.371 0.083-0.553 0.016-0.189 0.033-0.38 0.033-0.561 0-0.133-0.009-0.265-0.017-0.397-0.020-0.227-0.044-0.416-0.073-0.604l0.007 0.051c-0.039-0.226-0.082-0.412-0.133-0.595l0.010 0.042c-0.059-0.173-0.116-0.356-0.183-0.529s-0.148-0.347-0.231-0.512c-0.092-0.165-0.183-0.331-0.281-0.488-0.124-0.181-0.233-0.329-0.346-0.473l0.015 0.020c-0.124-0.141-0.248-0.283-0.38-0.423-0.069-0.070-0.139-0.138-0.211-0.203l-0.004-0.004c-0.373-0.289-0.76-0.561-1.149-0.809-0.045-0.027-0.099-0.054-0.155-0.079l-0.010-0.004c-0.226-0.141-0.486-0.259-0.763-0.341l-0.023-0.006z"></path>
</symbol>
<symbol id="fastapi" viewBox="0 0 32 32">
<path d="M16 0.052c-8.836-0-16 7.139-16 15.947-0.001 8.809 7.163 15.95 16 15.95s16.001-7.141 16-15.95c-0-8.808-7.164-15.947-16-15.947zM14.895 7.272h10.067l-10.107 7.105h6.91l-14.726 10.348q3.929-8.726 7.856-17.453z"></path>
</symbol>
<symbol id="express" viewBox="0 0 32 32">
<path d="M32 24.784c-0.214 0.083-0.462 0.132-0.721 0.132-0.78 0-1.457-0.438-1.8-1.081l-0.005-0.011-4.6-6.361-0.667-0.889-5.337 7.259c-0.332 0.635-0.985 1.060-1.738 1.060-0.238 0-0.467-0.043-0.678-0.121l0.014 0.004 6.877-9.227-6.397-8.335c0.215-0.080 0.462-0.126 0.721-0.126 0.763 0 1.432 0.402 1.807 1.005l0.005 0.009 4.768 6.44 4.795-6.413c0.328-0.611 0.962-1.020 1.692-1.020 0.249 0 0.487 0.048 0.705 0.134l-0.013-0.005-2.483 3.295-3.363 4.377c-0.183 0.163-0.297 0.4-0.297 0.663s0.114 0.499 0.296 0.662l0.001 0.001 6.405 8.549zM0.003 15.435l0.56-2.767c1.539-5.471 7.811-7.747 12.125-4.36 2.527 1.985 3.157 4.796 3.033 7.964h-14.233c-0.231 5.657 3.852 9.073 9.072 7.328 1.711-0.629 2.998-2.045 3.435-3.797l0.008-0.037c0.276-0.888 0.731-1.040 1.565-0.784-0.297 2.251-1.593 4.148-3.42 5.258l-0.032 0.018c-1.159 0.646-2.541 1.026-4.013 1.026-2.219 0-4.235-0.864-5.732-2.274l0.004 0.004c-1.226-1.375-2.028-3.153-2.185-5.113l-0.002-0.031c0-0.313-0.107-0.607-0.179-0.888-0.006-0.441-0.009-0.962-0.009-1.484 0-0.022 0-0.043 0-0.065v0.003zM1.505 15.053h12.872c-0.080-4.101-2.668-7.011-6.12-7.037-3.843-0.053-6.592 2.792-6.761 7.019z"></path>
</symbol>
<symbol id="phone" viewBox="0 0 32 32">
<path d="M22 20c-2 2-2 4-4 4s-4-2-6-4-4-4-4-6 2-2 4-4-4-8-6-8-6 6-6 6c0 4 4.109 12.109 8 16s12 8 16 8c0 0 6-4 6-6s-6-8-8-6z"></path>
</symbol>
<symbol id="cross" viewBox="0 0 32 32">
<path d="M31.708 25.708c-0-0-0-0-0-0l-9.708-9.708 9.708-9.708c0-0 0-0 0-0 0.105-0.105 0.18-0.227 0.229-0.357 0.133-0.356 0.057-0.771-0.229-1.057l-4.586-4.586c-0.286-0.286-0.702-0.361-1.057-0.229-0.13 0.048-0.252 0.124-0.357 0.228 0 0-0 0-0 0l-9.708 9.708-9.708-9.708c-0-0-0-0-0-0-0.105-0.104-0.227-0.18-0.357-0.228-0.356-0.133-0.771-0.057-1.057 0.229l-4.586 4.586c-0.286 0.286-0.361 0.702-0.229 1.057 0.049 0.13 0.124 0.252 0.229 0.357 0 0 0 0 0 0l9.708 9.708-9.708 9.708c-0 0-0 0-0 0-0.104 0.105-0.18 0.227-0.229 0.357-0.133 0.355-0.057 0.771 0.229 1.057l4.586 4.586c0.286 0.286 0.702 0.361 1.057 0.229 0.13-0.049 0.252-0.124 0.357-0.229 0-0 0-0 0-0l9.708-9.708 9.708 9.708c0 0 0 0 0 0 0.105 0.105 0.227 0.18 0.357 0.229 0.356 0.133 0.771 0.057 1.057-0.229l4.586-4.586c0.286-0.286 0.362-0.702 0.229-1.057-0.049-0.13-0.124-0.252-0.229-0.357z"></path>
</symbol>
<symbol id="paragraph-right" viewBox="0 0 32 32">
<path d="M0 2h32v4h-32zM12 8h20v4h-20zM12 20h20v4h-20zM0 14h32v4h-32zM0 26h32v4h-32z"></path>
</symbol>
</defs>
</svg>
